<?xml version="1.0" encoding="UTF-8" standalone="no"?><svg xmlns="http://www.w3.org/2000/svg" xmlns:xlink="http://www.w3.org/1999/xlink" contentStyleType="text/css" height="2016px" preserveAspectRatio="none" style="width:1545px;height:2016px;background:#FFFFFF;" version="1.1" viewBox="0 0 1545 2016" width="1545px" zoomAndPan="magnify"><defs/><g><rect fill="#FA8072" height="346.3945" style="stroke:#181818;stroke-width:1.0;" width="10" x="282.5" y="393.125"/><rect fill="#FA8072" height="621.8555" style="stroke:#181818;stroke-width:1.0;" width="10" x="500.5" y="739.5195"/><rect fill="#E9967A" height="35.3516" style="stroke:#181818;stroke-width:1.0;" width="10" x="690.5" y="1064.2109"/><rect fill="#FA8072" height="150.9336" style="stroke:#181818;stroke-width:1.0;" width="10" x="690.5" y="1547.4844"/><rect fill="#FA8072" height="60.7031" style="stroke:#181818;stroke-width:1.0;" width="10" x="792" y="1424.0781"/><rect fill="#FFBBBB" height="368.5156" style="stroke:#181818;stroke-width:1.0;" width="10" x="911.5" y="992.8594"/><rect fill="#E9967A" height="134.4063" style="stroke:#181818;stroke-width:1.0;" width="10" x="916.5" y="1226.9688"/><rect fill="#FA8072" height="447.625" style="stroke:#181818;stroke-width:1.0;" width="10" x="1021.5" y="575.2344"/><rect fill="#FA8072" height="210.9883" style="stroke:#181818;stroke-width:1.0;" width="10" x="1021.5" y="1698.418"/><rect fill="#FA8072" height="170.4063" style="stroke:#181818;stroke-width:1.0;" width="10" x="1217.5" y="992.8594"/><rect fill="#FA8072" height="60.7031" style="stroke:#181818;stroke-width:1.0;" width="10" x="1217.5" y="1300.6719"/><rect fill="#FA8072" height="236.1641" style="stroke:#181818;stroke-width:1.0;" width="10" x="1217.5" y="1626.5391"/><rect height="176.1094" style="stroke:#000000;stroke-width:1.5;fill:none;" width="1275" x="10" y="99.6094"/><rect height="48.7031" style="stroke:#000000;stroke-width:1.5;fill:none;" width="331" x="10" y="289.7188"/><rect height="552.3828" style="stroke:#000000;stroke-width:1.5;fill:none;" width="1168.5" x="10" y="352.4219"/><rect height="450.5703" style="stroke:#000000;stroke-width:1.5;fill:none;" width="1529.5" x="10" y="918.8047"/><rect height="109.4063" style="stroke:#000000;stroke-width:1.5;fill:none;" width="1275" x="10" y="1383.375"/><rect height="48.7031" style="stroke:#000000;stroke-width:1.5;fill:none;" width="637.5" x="647.5" y="1506.7813"/><rect height="347.9219" style="stroke:#000000;stroke-width:1.5;fill:none;" width="1444.5" x="95" y="1569.4844"/><line style="stroke:#181818;stroke-width:0.5;fill:none;stroke-dasharray:5.0,5.0;" x1="57" x2="57" y1="82.6094" y2="1934.4063"/><line style="stroke:#181818;stroke-width:0.5;fill:none;stroke-dasharray:5.0,5.0;" x1="169" x2="169" y1="82.6094" y2="1934.4063"/><line style="stroke:#181818;stroke-width:0.5;fill:none;stroke-dasharray:5.0,5.0;" x1="287" x2="287" y1="82.6094" y2="1934.4063"/><line style="stroke:#181818;stroke-width:0.5;fill:none;stroke-dasharray:5.0,5.0;" x1="505" x2="505" y1="82.6094" y2="1934.4063"/><line style="stroke:#181818;stroke-width:0.5;fill:none;stroke-dasharray:5.0,5.0;" x1="695.5" x2="695.5" y1="82.6094" y2="1934.4063"/><line style="stroke:#181818;stroke-width:0.5;fill:none;stroke-dasharray:5.0,5.0;" x1="796.5" x2="796.5" y1="82.6094" y2="1934.4063"/><line style="stroke:#181818;stroke-width:0.5;fill:none;stroke-dasharray:5.0,5.0;" x1="916.5" x2="916.5" y1="82.6094" y2="1934.4063"/><line style="stroke:#181818;stroke-width:0.5;fill:none;stroke-dasharray:5.0,5.0;" x1="1026.5" x2="1026.5" y1="82.6094" y2="1934.4063"/><line style="stroke:#181818;stroke-width:0.5;fill:none;stroke-dasharray:5.0,5.0;" x1="1222" x2="1222" y1="82.6094" y2="1934.4063"/><line style="stroke:#181818;stroke-width:0.5;fill:none;stroke-dasharray:5.0,5.0;" x1="1455.5" x2="1455.5" y1="82.6094" y2="1934.4063"/><text fill="#000000" font-family="sans-serif" font-size="14" lengthAdjust="spacing" textLength="69" x="20" y="79.5332">John Smith</text><ellipse cx="57.5" cy="13.5" fill="#E2E2F0" rx="8" ry="8" style="stroke:#181818;stroke-width:0.5;"/><path d="M57.5,21.5 L57.5,48.5 M44.5,29.5 L70.5,29.5 M57.5,48.5 L44.5,63.5 M57.5,48.5 L70.5,63.5 " fill="none" style="stroke:#181818;stroke-width:0.5;"/><text fill="#000000" font-family="sans-serif" font-size="14" lengthAdjust="spacing" textLength="69" x="20" y="1947.9395">John Smith</text><ellipse cx="57.5" cy="1959.5156" fill="#E2E2F0" rx="8" ry="8" style="stroke:#181818;stroke-width:0.5;"/><path d="M57.5,1967.5156 L57.5,1994.5156 M44.5,1975.5156 L70.5,1975.5156 M57.5,1994.5156 L44.5,2009.5156 M57.5,1994.5156 L70.5,2009.5156 " fill="none" style="stroke:#181818;stroke-width:0.5;"/><text fill="#000000" font-family="sans-serif" font-size="14" lengthAdjust="spacing" textLength="123" x="105" y="79.5332">Referring Physician</text><ellipse cx="169.5" cy="13.5" fill="#E2E2F0" rx="8" ry="8" style="stroke:#181818;stroke-width:0.5;"/><path d="M169.5,21.5 L169.5,48.5 M156.5,29.5 L182.5,29.5 M169.5,48.5 L156.5,63.5 M169.5,48.5 L182.5,63.5 " fill="none" style="stroke:#181818;stroke-width:0.5;"/><text fill="#000000" font-family="sans-serif" font-size="14" lengthAdjust="spacing" textLength="123" x="105" y="1947.9395">Referring Physician</text><ellipse cx="169.5" cy="1959.5156" fill="#E2E2F0" rx="8" ry="8" style="stroke:#181818;stroke-width:0.5;"/><path d="M169.5,1967.5156 L169.5,1994.5156 M156.5,1975.5156 L182.5,1975.5156 M169.5,1994.5156 L156.5,2009.5156 M169.5,1994.5156 L182.5,2009.5156 " fill="none" style="stroke:#181818;stroke-width:0.5;"/><text fill="#000000" font-family="sans-serif" font-size="14" lengthAdjust="spacing" textLength="81" x="244" y="79.5332">Facility Clerk</text><ellipse cx="287.5" cy="13.5" fill="#E2E2F0" rx="8" ry="8" style="stroke:#181818;stroke-width:0.5;"/><path d="M287.5,21.5 L287.5,48.5 M274.5,29.5 L300.5,29.5 M287.5,48.5 L274.5,63.5 M287.5,48.5 L300.5,63.5 " fill="none" style="stroke:#181818;stroke-width:0.5;"/><text fill="#000000" font-family="sans-serif" font-size="14" lengthAdjust="spacing" textLength="81" x="244" y="1947.9395">Facility Clerk</text><ellipse cx="287.5" cy="1959.5156" fill="#E2E2F0" rx="8" ry="8" style="stroke:#181818;stroke-width:0.5;"/><path d="M287.5,1967.5156 L287.5,1994.5156 M274.5,1975.5156 L300.5,1975.5156 M287.5,1994.5156 L274.5,2009.5156 M287.5,1994.5156 L300.5,2009.5156 " fill="none" style="stroke:#181818;stroke-width:0.5;"/><text fill="#000000" font-family="sans-serif" font-size="14" lengthAdjust="spacing" textLength="81" x="462" y="79.5332">Technologist</text><ellipse cx="505.5" cy="13.5" fill="#E2E2F0" rx="8" ry="8" style="stroke:#181818;stroke-width:0.5;"/><path d="M505.5,21.5 L505.5,48.5 M492.5,29.5 L518.5,29.5 M505.5,48.5 L492.5,63.5 M505.5,48.5 L518.5,63.5 " fill="none" style="stroke:#181818;stroke-width:0.5;"/><text fill="#000000" font-family="sans-serif" font-size="14" lengthAdjust="spacing" textLength="81" x="462" y="1947.9395">Technologist</text><ellipse cx="505.5" cy="1959.5156" fill="#E2E2F0" rx="8" ry="8" style="stroke:#181818;stroke-width:0.5;"/><path d="M505.5,1967.5156 L505.5,1994.5156 M492.5,1975.5156 L518.5,1975.5156 M505.5,1994.5156 L492.5,2009.5156 M505.5,1994.5156 L518.5,2009.5156 " fill="none" style="stroke:#181818;stroke-width:0.5;"/><text fill="#000000" font-family="sans-serif" font-size="14" lengthAdjust="spacing" textLength="70" x="657.5" y="79.5332">Radiologist</text><ellipse cx="695.5" cy="13.5" fill="#E2E2F0" rx="8" ry="8" style="stroke:#181818;stroke-width:0.5;"/><path d="M695.5,21.5 L695.5,48.5 M682.5,29.5 L708.5,29.5 M695.5,48.5 L682.5,63.5 M695.5,48.5 L708.5,63.5 " fill="none" style="stroke:#181818;stroke-width:0.5;"/><text fill="#000000" font-family="sans-serif" font-size="14" lengthAdjust="spacing" textLength="70" x="657.5" y="1947.9395">Radiologist</text><ellipse cx="695.5" cy="1959.5156" fill="#E2E2F0" rx="8" ry="8" style="stroke:#181818;stroke-width:0.5;"/><path d="M695.5,1967.5156 L695.5,1994.5156 M682.5,1975.5156 L708.5,1975.5156 M695.5,1994.5156 L682.5,2009.5156 M695.5,1994.5156 L708.5,2009.5156 " fill="none" style="stroke:#181818;stroke-width:0.5;"/><text fill="#000000" font-family="sans-serif" font-size="14" lengthAdjust="spacing" textLength="101" x="743.5" y="79.5332">Recovery Nurse</text><ellipse cx="797" cy="13.5" fill="#E2E2F0" rx="8" ry="8" style="stroke:#181818;stroke-width:0.5;"/><path d="M797,21.5 L797,48.5 M784,29.5 L810,29.5 M797,48.5 L784,63.5 M797,48.5 L810,63.5 " fill="none" style="stroke:#181818;stroke-width:0.5;"/><text fill="#000000" font-family="sans-serif" font-size="14" lengthAdjust="spacing" textLength="101" x="743.5" y="1947.9395">Recovery Nurse</text><ellipse cx="797" cy="1959.5156" fill="#E2E2F0" rx="8" ry="8" style="stroke:#181818;stroke-width:0.5;"/><path d="M797,1967.5156 L797,1994.5156 M784,1975.5156 L810,1975.5156 M797,1994.5156 L784,2009.5156 M797,1994.5156 L810,2009.5156 " fill="none" style="stroke:#181818;stroke-width:0.5;"/><text fill="#000000" font-family="sans-serif" font-size="14" lengthAdjust="spacing" textLength="106" x="860.5" y="79.5332">PET/CT Modality</text><ellipse cx="916.5" cy="49" fill="#E2E2F0" rx="12" ry="12" style="stroke:#181818;stroke-width:0.5;"/><line style="stroke:#181818;stroke-width:0.5;" x1="904.5" x2="928.5" y1="63" y2="63"/><text fill="#000000" font-family="sans-serif" font-size="14" lengthAdjust="spacing" textLength="106" x="860.5" y="1947.9395">PET/CT Modality</text><ellipse cx="916.5" cy="1967.0156" fill="#E2E2F0" rx="12" ry="12" style="stroke:#181818;stroke-width:0.5;"/><line style="stroke:#181818;stroke-width:0.5;" x1="904.5" x2="928.5" y1="1981.0156" y2="1981.0156"/><text fill="#000000" font-family="sans-serif" font-size="14" lengthAdjust="spacing" textLength="28" x="1009.5" y="79.5332">EHR</text><ellipse cx="1026.5" cy="49" fill="#E2E2F0" rx="12" ry="12" style="stroke:#181818;stroke-width:0.5;"/><line style="stroke:#181818;stroke-width:0.5;" x1="1014.5" x2="1038.5" y1="63" y2="63"/><text fill="#000000" font-family="sans-serif" font-size="14" lengthAdjust="spacing" textLength="28" x="1009.5" y="1947.9395">EHR</text><ellipse cx="1026.5" cy="1967.0156" fill="#E2E2F0" rx="12" ry="12" style="stroke:#181818;stroke-width:0.5;"/><line style="stroke:#181818;stroke-width:0.5;" x1="1014.5" x2="1038.5" y1="1981.0156" y2="1981.0156"/><text fill="#000000" font-family="sans-serif" font-size="14" lengthAdjust="spacing" textLength="99" x="1170" y="79.5332">PACS/RIS/MWL</text><ellipse cx="1222.5" cy="49" fill="#E2E2F0" rx="12" ry="12" style="stroke:#181818;stroke-width:0.5;"/><line style="stroke:#181818;stroke-width:0.5;" x1="1210.5" x2="1234.5" y1="63" y2="63"/><text fill="#000000" font-family="sans-serif" font-size="14" lengthAdjust="spacing" textLength="99" x="1170" y="1947.9395">PACS/RIS/MWL</text><ellipse cx="1222.5" cy="1967.0156" fill="#E2E2F0" rx="12" ry="12" style="stroke:#181818;stroke-width:0.5;"/><line style="stroke:#181818;stroke-width:0.5;" x1="1210.5" x2="1234.5" y1="1981.0156" y2="1981.0156"/><text fill="#000000" font-family="sans-serif" font-size="14" lengthAdjust="spacing" textLength="142" x="1381.5" y="79.5332">State Dose Repository</text><ellipse cx="1455.5" cy="49" fill="#E2E2F0" rx="12" ry="12" style="stroke:#181818;stroke-width:0.5;"/><line style="stroke:#181818;stroke-width:0.5;" x1="1443.5" x2="1467.5" y1="63" y2="63"/><text fill="#000000" font-family="sans-serif" font-size="14" lengthAdjust="spacing" textLength="142" x="1381.5" y="1947.9395">State Dose Repository</text><ellipse cx="1455.5" cy="1967.0156" fill="#E2E2F0" rx="12" ry="12" style="stroke:#181818;stroke-width:0.5;"/><line style="stroke:#181818;stroke-width:0.5;" x1="1443.5" x2="1467.5" y1="1981.0156" y2="1981.0156"/><rect fill="#FA8072" height="346.3945" style="stroke:#181818;stroke-width:1.0;" width="10" x="282.5" y="393.125"/><rect fill="#FA8072" height="621.8555" style="stroke:#181818;stroke-width:1.0;" width="10" x="500.5" y="739.5195"/><rect fill="#E9967A" height="35.3516" style="stroke:#181818;stroke-width:1.0;" width="10" x="690.5" y="1064.2109"/><rect fill="#FA8072" height="150.9336" style="stroke:#181818;stroke-width:1.0;" width="10" x="690.5" y="1547.4844"/><rect fill="#FA8072" height="60.7031" style="stroke:#181818;stroke-width:1.0;" width="10" x="792" y="1424.0781"/><rect fill="#FFBBBB" height="368.5156" style="stroke:#181818;stroke-width:1.0;" width="10" x="911.5" y="992.8594"/><rect fill="#E9967A" height="134.4063" style="stroke:#181818;stroke-width:1.0;" width="10" x="916.5" y="1226.9688"/><rect fill="#FA8072" height="447.625" style="stroke:#181818;stroke-width:1.0;" width="10" x="1021.5" y="575.2344"/><rect fill="#FA8072" height="210.9883" style="stroke:#181818;stroke-width:1.0;" width="10" x="1021.5" y="1698.418"/><rect fill="#FA8072" height="170.4063" style="stroke:#181818;stroke-width:1.0;" width="10" x="1217.5" y="992.8594"/><rect fill="#FA8072" height="60.7031" style="stroke:#181818;stroke-width:1.0;" width="10" x="1217.5" y="1300.6719"/><rect fill="#FA8072" height="236.1641" style="stroke:#181818;stroke-width:1.0;" width="10" x="1217.5" y="1626.5391"/><path d="M10,99.6094 L296,99.6094 L296,107.9609 L286,117.9609 L10,117.9609 L10,99.6094 " fill="#EEEEEE" style="stroke:#000000;stroke-width:1.5;"/><rect fill="none" height="176.1094" style="stroke:#000000;stroke-width:1.5;" width="1275" x="10" y="99.6094"/><text fill="#000000" font-family="sans-serif" font-size="13" font-weight="bold" lengthAdjust="spacing" textLength="241" x="25" y="114.1045">prior to patient arrival (pre-conditions)</text><polygon fill="#181818" points="1014.5,139.3125,1024.5,143.3125,1014.5,147.3125,1018.5,143.3125" style="stroke:#181818;stroke-width:1.0;"/><line style="stroke:#181818;stroke-width:1.0;" x1="169.5" x2="1020.5" y1="143.3125" y2="143.3125"/><text fill="#000000" font-family="sans-serif" font-size="13" lengthAdjust="spacing" textLength="64" x="176.5" y="138.4561">place order</text><path d="M1031,122.9609 L1031,148.9609 L1121,148.9609 L1121,132.9609 L1111,122.9609 L1031,122.9609 " fill="#FEFFDD" style="stroke:#181818;stroke-width:0.5;"/><path d="M1111,122.9609 L1111,132.9609 L1121,132.9609 L1111,122.9609 " fill="#FEFFDD" style="stroke:#181818;stroke-width:0.5;"/><text fill="#000000" font-family="sans-serif" font-size="13" lengthAdjust="spacing" textLength="69" x="1037" y="141.4561">Example 01</text><polygon fill="#181818" points="68.5,172.6641,58.5,176.6641,68.5,180.6641,64.5,176.6641" style="stroke:#181818;stroke-width:1.0;"/><polygon fill="#181818" points="275.5,172.6641,285.5,176.6641,275.5,180.6641,279.5,176.6641" style="stroke:#181818;stroke-width:1.0;"/><line style="stroke:#181818;stroke-width:1.0;" x1="62.5" x2="281.5" y1="176.6641" y2="176.6641"/><text fill="#000000" font-family="sans-serif" font-size="13" lengthAdjust="spacing" textLength="65" x="74.5" y="171.8076">pre-register</text><polygon fill="#181818" points="1014.5,203.0156,1024.5,207.0156,1014.5,211.0156,1018.5,207.0156" style="stroke:#181818;stroke-width:1.0;"/><line style="stroke:#181818;stroke-width:1.0;" x1="287.5" x2="1020.5" y1="207.0156" y2="207.0156"/><text fill="#000000" font-family="sans-serif" font-size="13" lengthAdjust="spacing" textLength="173" x="294.5" y="202.1592">obtain insurance authorization</text><polygon fill="#181818" points="1210.5,233.3672,1220.5,237.3672,1210.5,241.3672,1214.5,237.3672" style="stroke:#181818;stroke-width:1.0;"/><line style="stroke:#181818;stroke-width:1.0;" x1="1026.5" x2="1216.5" y1="237.3672" y2="237.3672"/><text fill="#000000" font-family="sans-serif" font-size="13" lengthAdjust="spacing" textLength="167" x="1033.5" y="232.5107">retrieve priors based on order</text><polygon fill="#181818" points="1014.5,263.7188,1024.5,267.7188,1014.5,271.7188,1018.5,267.7188" style="stroke:#181818;stroke-width:1.0;"/><line style="stroke:#181818;stroke-width:1.0;" x1="695.5" x2="1020.5" y1="267.7188" y2="267.7188"/><text fill="#000000" font-family="sans-serif" font-size="13" lengthAdjust="spacing" textLength="178" x="702.5" y="262.8623">assign protocol based on order</text><path d="M10,289.7188 L146,289.7188 L146,298.0703 L136,308.0703 L10,308.0703 L10,289.7188 " fill="#EEEEEE" style="stroke:#000000;stroke-width:1.5;"/><rect fill="none" height="48.7031" style="stroke:#000000;stroke-width:1.5;" width="331" x="10" y="289.7188"/><text fill="#000000" font-family="sans-serif" font-size="13" font-weight="bold" lengthAdjust="spacing" textLength="91" x="25" y="304.2139">patient arrives</text><polygon fill="#181818" points="275.5,326.4219,285.5,330.4219,275.5,334.4219,279.5,330.4219" style="stroke:#181818;stroke-width:1.0;"/><line style="stroke:#181818;stroke-width:1.0;" x1="57.5" x2="281.5" y1="330.4219" y2="330.4219"/><text fill="#000000" font-family="sans-serif" font-size="13" lengthAdjust="spacing" textLength="33" x="64.5" y="325.5654">arrival</text><path d="M10,352.4219 L253,352.4219 L253,360.7734 L243,370.7734 L10,370.7734 L10,352.4219 " fill="#EEEEEE" style="stroke:#000000;stroke-width:1.5;"/><rect fill="none" height="552.3828" style="stroke:#000000;stroke-width:1.5;" width="1168.5" x="10" y="352.4219"/><text fill="#000000" font-family="sans-serif" font-size="13" font-weight="bold" lengthAdjust="spacing" textLength="198" x="25" y="366.917">Patient in waiting area (x.1.6.1)</text><polygon fill="#181818" points="270.5,389.125,280.5,393.125,270.5,397.125,274.5,393.125" style="stroke:#181818;stroke-width:1.0;"/><line style="stroke:#181818;stroke-width:1.0;" x1="57.5" x2="276.5" y1="393.125" y2="393.125"/><text fill="#000000" font-family="sans-serif" font-size="13" lengthAdjust="spacing" textLength="99" x="64.5" y="388.2686">announces name</text><polygon fill="#181818" points="303.5,419.4766,293.5,423.4766,303.5,427.4766,299.5,423.4766" style="stroke:#181818;stroke-width:1.0;"/><polygon fill="#181818" points="1014.5,419.4766,1024.5,423.4766,1014.5,427.4766,1018.5,423.4766" style="stroke:#181818;stroke-width:1.0;"/><line style="stroke:#181818;stroke-width:1.0;" x1="297.5" x2="1020.5" y1="423.4766" y2="423.4766"/><text fill="#000000" font-family="sans-serif" font-size="13" lengthAdjust="spacing" textLength="110" x="309.5" y="418.6201">find appointment(s)</text><polygon fill="#181818" points="68.5,449.8281,58.5,453.8281,68.5,457.8281,64.5,453.8281" style="stroke:#181818;stroke-width:1.0;"/><line style="stroke:#181818;stroke-width:1.0;" x1="62.5" x2="281.5" y1="453.8281" y2="453.8281"/><text fill="#000000" font-family="sans-serif" font-size="13" lengthAdjust="spacing" textLength="154" x="74.5" y="448.9717">Ask for identity information</text><polygon fill="#181818" points="270.5,480.1797,280.5,484.1797,270.5,488.1797,274.5,484.1797" style="stroke:#181818;stroke-width:1.0;"/><line style="stroke:#181818;stroke-width:1.0;" x1="57.5" x2="276.5" y1="484.1797" y2="484.1797"/><text fill="#000000" font-family="sans-serif" font-size="13" lengthAdjust="spacing" textLength="130" x="64.5" y="479.3232">Provide identity details</text><polygon fill="#181818" points="303.5,510.5313,293.5,514.5313,303.5,518.5313,299.5,514.5313" style="stroke:#181818;stroke-width:1.0;"/><polygon fill="#181818" points="1014.5,510.5313,1024.5,514.5313,1014.5,518.5313,1018.5,514.5313" style="stroke:#181818;stroke-width:1.0;"/><line style="stroke:#181818;stroke-width:1.0;" x1="297.5" x2="1020.5" y1="514.5313" y2="514.5313"/><text fill="#000000" font-family="sans-serif" font-size="13" lengthAdjust="spacing" textLength="143" x="309.5" y="509.6748">Find patient appointment</text><polygon fill="#181818" points="68.5,540.8828,58.5,544.8828,68.5,548.8828,64.5,544.8828" style="stroke:#181818;stroke-width:1.0;"/><polygon fill="#181818" points="270.5,540.8828,280.5,544.8828,270.5,548.8828,274.5,544.8828" style="stroke:#181818;stroke-width:1.0;"/><line style="stroke:#181818;stroke-width:1.0;" x1="62.5" x2="276.5" y1="544.8828" y2="544.8828"/><text fill="#000000" font-family="sans-serif" font-size="13" lengthAdjust="spacing" textLength="174" x="74.5" y="540.0264">choose name change process</text><polygon fill="#181818" points="1009.5,571.2344,1019.5,575.2344,1009.5,579.2344,1013.5,575.2344" style="stroke:#181818;stroke-width:1.0;"/><line style="stroke:#181818;stroke-width:1.0;" x1="292.5" x2="1015.5" y1="575.2344" y2="575.2344"/><text fill="#000000" font-family="sans-serif" font-size="13" lengthAdjust="spacing" textLength="169" x="299.5" y="570.3779">Update patient demographics</text><polygon fill="#181818" points="303.5,601.5859,293.5,605.5859,303.5,609.5859,299.5,605.5859" style="stroke:#181818;stroke-width:1.0;"/><line style="stroke:#181818;stroke-width:1.0;" x1="297.5" x2="1020.5" y1="605.5859" y2="605.5859"/><text fill="#000000" font-family="sans-serif" font-size="13" lengthAdjust="spacing" textLength="189" x="309.5" y="600.7295">Demographics update scheduled</text><line style="stroke:#181818;stroke-width:1.0;" x1="1031.5" x2="1073.5" y1="635.9375" y2="635.9375"/><line style="stroke:#181818;stroke-width:1.0;" x1="1073.5" x2="1073.5" y1="635.9375" y2="648.9375"/><line style="stroke:#181818;stroke-width:1.0;" x1="1032.5" x2="1073.5" y1="648.9375" y2="648.9375"/><polygon fill="#181818" points="1042.5,644.9375,1032.5,648.9375,1042.5,652.9375,1038.5,648.9375" style="stroke:#181818;stroke-width:1.0;"/><text fill="#000000" font-family="sans-serif" font-size="13" lengthAdjust="spacing" textLength="128" x="1038.5" y="631.0811">Update Demographics</text><polygon fill="#181818" points="488.5,735.5195,498.5,739.5195,488.5,743.5195,492.5,739.5195" style="stroke:#181818;stroke-width:1.0;"/><line style="stroke:#181818;stroke-width:1.0;" x1="287.5" x2="494.5" y1="739.5195" y2="739.5195"/><text fill="#000000" font-family="sans-serif" font-size="13" lengthAdjust="spacing" textLength="189" x="294.5" y="734.6631">Notify arrival and new information</text><path d="M515,661.9375 L515,801.9375 L872,801.9375 L872,671.9375 L862,661.9375 L515,661.9375 " fill="#FEFFDD" style="stroke:#181818;stroke-width:0.5;"/><path d="M862,661.9375 L862,671.9375 L872,671.9375 L862,661.9375 " fill="#FEFFDD" style="stroke:#181818;stroke-width:0.5;"/><text fill="#000000" font-family="sans-serif" font-size="13" lengthAdjust="spacing" textLength="309" x="521" y="680.4326">The local procedure is to defer demographics updates</text><text fill="#000000" font-family="sans-serif" font-size="13" lengthAdjust="spacing" textLength="238" x="521" y="696.7842">for patients that are in the exam process.</text><text fill="#000000" font-family="sans-serif" font-size="13" lengthAdjust="spacing" textLength="4" x="521" y="713.1357"> </text><text fill="#000000" font-family="sans-serif" font-size="13" lengthAdjust="spacing" textLength="336" x="521" y="729.4873">The exam will proceed using personal communication with</text><text fill="#000000" font-family="sans-serif" font-size="13" lengthAdjust="spacing" textLength="251" x="521" y="745.8389">staff about pending demographics changes.</text><text fill="#000000" font-family="sans-serif" font-size="13" lengthAdjust="spacing" textLength="4" x="521" y="762.1904"> </text><text fill="#000000" font-family="sans-serif" font-size="13" lengthAdjust="spacing" textLength="313" x="521" y="778.542">Demographics changes will be applied when the exam</text><text fill="#000000" font-family="sans-serif" font-size="13" lengthAdjust="spacing" textLength="216" x="521" y="794.8936">is completed and the report delivered.</text><polygon fill="#181818" points="1009.5,829.1016,1019.5,833.1016,1009.5,837.1016,1013.5,833.1016" style="stroke:#181818;stroke-width:1.0;"/><line style="stroke:#181818;stroke-width:1.0;" x1="510.5" x2="1015.5" y1="833.1016" y2="833.1016"/><text fill="#000000" font-family="sans-serif" font-size="13" lengthAdjust="spacing" textLength="152" x="517.5" y="828.2451">Checks appointment order</text><path d="M1036,812.75 L1036,838.75 L1153,838.75 L1153,822.75 L1143,812.75 L1036,812.75 " fill="#FEFFDD" style="stroke:#181818;stroke-width:0.5;"/><path d="M1143,812.75 L1143,822.75 L1153,822.75 L1143,812.75 " fill="#FEFFDD" style="stroke:#181818;stroke-width:0.5;"/><text fill="#000000" font-family="sans-serif" font-size="13" lengthAdjust="spacing" textLength="96" x="1042" y="831.2451">See Example 01</text><polygon fill="#181818" points="1009.5,862.4531,1019.5,866.4531,1009.5,870.4531,1013.5,866.4531" style="stroke:#181818;stroke-width:1.0;"/><line style="stroke:#181818;stroke-width:1.0;" x1="510.5" x2="1015.5" y1="866.4531" y2="866.4531"/><text fill="#000000" font-family="sans-serif" font-size="13" lengthAdjust="spacing" textLength="108" x="517.5" y="861.5967">Checks lab results</text><polygon fill="#181818" points="68.5,892.8047,58.5,896.8047,68.5,900.8047,64.5,896.8047" style="stroke:#181818;stroke-width:1.0;"/><line style="stroke:#181818;stroke-width:1.0;" x1="62.5" x2="499.5" y1="896.8047" y2="896.8047"/><text fill="#000000" font-family="sans-serif" font-size="13" lengthAdjust="spacing" textLength="75" x="74.5" y="891.9482">Greet patient</text><path d="M10,918.8047 L294,918.8047 L294,927.1563 L284,937.1563 L10,937.1563 L10,918.8047 " fill="#EEEEEE" style="stroke:#000000;stroke-width:1.5;"/><rect fill="none" height="450.5703" style="stroke:#000000;stroke-width:1.5;" width="1529.5" x="10" y="918.8047"/><text fill="#000000" font-family="sans-serif" font-size="13" font-weight="bold" lengthAdjust="spacing" textLength="239" x="25" y="933.2998">patient in exam room (x.1.6.2, x.1.6.3)</text><polygon fill="#181818" points="68.5,955.5078,58.5,959.5078,68.5,963.5078,64.5,959.5078" style="stroke:#181818;stroke-width:1.0;"/><polygon fill="#181818" points="488.5,955.5078,498.5,959.5078,488.5,963.5078,492.5,959.5078" style="stroke:#181818;stroke-width:1.0;"/><line style="stroke:#181818;stroke-width:1.0;" x1="62.5" x2="494.5" y1="959.5078" y2="959.5078"/><text fill="#000000" font-family="sans-serif" font-size="13" lengthAdjust="spacing" textLength="92" x="74.5" y="954.6514">patient interview</text><polygon fill="#181818" points="1205.5,988.8594,1215.5,992.8594,1205.5,996.8594,1209.5,992.8594" style="stroke:#181818;stroke-width:1.0;"/><line style="stroke:#181818;stroke-width:1.0;" x1="1031.5" x2="1211.5" y1="992.8594" y2="992.8594"/><text fill="#000000" font-family="sans-serif" font-size="13" lengthAdjust="spacing" textLength="167" x="1038.5" y="988.0029">patient demographics update</text><path d="M1232,972.5078 L1232,998.5078 L1322,998.5078 L1322,982.5078 L1312,972.5078 L1232,972.5078 " fill="#FEFFDD" style="stroke:#181818;stroke-width:0.5;"/><path d="M1312,972.5078 L1312,982.5078 L1322,982.5078 L1312,972.5078 " fill="#FEFFDD" style="stroke:#181818;stroke-width:0.5;"/><text fill="#000000" font-family="sans-serif" font-size="13" lengthAdjust="spacing" textLength="69" x="1238" y="991.0029">Example 03</text><line style="stroke:#181818;stroke-width:1.0;" x1="510.5" x2="557.5" y1="1051.2109" y2="1051.2109"/><line style="stroke:#181818;stroke-width:1.0;" x1="557.5" x2="557.5" y1="1051.2109" y2="1064.2109"/><line style="stroke:#181818;stroke-width:1.0;" x1="516.5" x2="557.5" y1="1064.2109" y2="1064.2109"/><polygon fill="#181818" points="526.5,1060.2109,516.5,1064.2109,526.5,1068.2109,522.5,1064.2109" style="stroke:#181818;stroke-width:1.0;"/><text fill="#000000" font-family="sans-serif" font-size="13" lengthAdjust="spacing" textLength="70" x="522.5" y="1046.3545">Prep patient</text><polygon fill="#181818" points="521.5,1095.5625,511.5,1099.5625,521.5,1103.5625,517.5,1099.5625" style="stroke:#181818;stroke-width:1.0;"/><polygon fill="#181818" points="683.5,1095.5625,693.5,1099.5625,683.5,1103.5625,687.5,1099.5625" style="stroke:#181818;stroke-width:1.0;"/><line style="stroke:#181818;stroke-width:1.0;" x1="515.5" x2="689.5" y1="1099.5625" y2="1099.5625"/><text fill="#000000" font-family="sans-serif" font-size="13" lengthAdjust="spacing" textLength="156" x="527.5" y="1094.7061">confer on protocol changes</text><polygon fill="#181818" points="1205.5,1125.9141,1215.5,1129.9141,1205.5,1133.9141,1209.5,1129.9141" style="stroke:#181818;stroke-width:1.0;"/><line style="stroke:#181818;stroke-width:1.0;" x1="921.5" x2="1211.5" y1="1129.9141" y2="1129.9141"/><text fill="#000000" font-family="sans-serif" font-size="13" lengthAdjust="spacing" textLength="238" x="928.5" y="1125.0576">request MWL (demographics, order, etc.)</text><polygon fill="#181818" points="932.5,1159.2656,922.5,1163.2656,932.5,1167.2656,928.5,1163.2656" style="stroke:#181818;stroke-width:1.0;"/><line style="stroke:#181818;stroke-width:1.0;" x1="926.5" x2="1221.5" y1="1163.2656" y2="1163.2656"/><text fill="#000000" font-family="sans-serif" font-size="13" lengthAdjust="spacing" textLength="235" x="938.5" y="1158.4092">receive MWL (demographics, order, etc.)</text><path d="M1232,1142.9141 L1232,1168.9141 L1349,1168.9141 L1349,1152.9141 L1339,1142.9141 L1232,1142.9141 " fill="#FEFFDD" style="stroke:#181818;stroke-width:0.5;"/><path d="M1339,1142.9141 L1339,1152.9141 L1349,1152.9141 L1339,1142.9141 " fill="#FEFFDD" style="stroke:#181818;stroke-width:0.5;"/><text fill="#000000" font-family="sans-serif" font-size="13" lengthAdjust="spacing" textLength="96" x="1238" y="1161.4092">See Example 02</text><polygon fill="#181818" points="899.5,1192.6172,909.5,1196.6172,899.5,1200.6172,903.5,1196.6172" style="stroke:#181818;stroke-width:1.0;"/><line style="stroke:#181818;stroke-width:1.0;" x1="510.5" x2="905.5" y1="1196.6172" y2="1196.6172"/><text fill="#000000" font-family="sans-serif" font-size="13" lengthAdjust="spacing" textLength="85" x="517.5" y="1191.7607">adjust protocol</text><polygon fill="#181818" points="904.5,1222.9688,914.5,1226.9688,904.5,1230.9688,908.5,1226.9688" style="stroke:#181818;stroke-width:1.0;"/><line style="stroke:#181818;stroke-width:1.0;" x1="510.5" x2="910.5" y1="1226.9688" y2="1226.9688"/><text fill="#000000" font-family="sans-serif" font-size="13" lengthAdjust="spacing" textLength="91" x="517.5" y="1222.1123">Ready for exam</text><line style="stroke:#181818;stroke-width:1.0;" x1="926.5" x2="968.5" y1="1257.3203" y2="1257.3203"/><line style="stroke:#181818;stroke-width:1.0;" x1="968.5" x2="968.5" y1="1257.3203" y2="1270.3203"/><line style="stroke:#181818;stroke-width:1.0;" x1="927.5" x2="968.5" y1="1270.3203" y2="1270.3203"/><polygon fill="#181818" points="937.5,1266.3203,927.5,1270.3203,937.5,1274.3203,933.5,1270.3203" style="stroke:#181818;stroke-width:1.0;"/><text fill="#000000" font-family="sans-serif" font-size="13" lengthAdjust="spacing" textLength="81" x="933.5" y="1252.4639">Perform exam</text><polygon fill="#181818" points="1205.5,1296.6719,1215.5,1300.6719,1205.5,1304.6719,1209.5,1300.6719" style="stroke:#181818;stroke-width:1.0;"/><line style="stroke:#181818;stroke-width:1.0;" x1="926.5" x2="1211.5" y1="1300.6719" y2="1300.6719"/><text fill="#000000" font-family="sans-serif" font-size="13" lengthAdjust="spacing" textLength="89" x="933.5" y="1295.8154">transfer images</text><polygon fill="#181818" points="1205.5,1327.0234,1215.5,1331.0234,1205.5,1335.0234,1209.5,1331.0234" style="stroke:#181818;stroke-width:1.0;"/><line style="stroke:#181818;stroke-width:1.0;" x1="926.5" x2="1211.5" y1="1331.0234" y2="1331.0234"/><text fill="#000000" font-family="sans-serif" font-size="13" lengthAdjust="spacing" textLength="157" x="933.5" y="1326.167">transfer dose info as RDSR</text><polygon fill="#181818" points="1443.5,1357.375,1453.5,1361.375,1443.5,1365.375,1447.5,1361.375" style="stroke:#181818;stroke-width:1.0;"/><line style="stroke:#181818;stroke-width:1.0;" x1="1222.5" x2="1449.5" y1="1361.375" y2="1361.375"/><text fill="#000000" font-family="sans-serif" font-size="13" lengthAdjust="spacing" textLength="157" x="1229.5" y="1356.5186">transfer dose info as RDSR</text><path d="M10,1383.375 L219,1383.375 L219,1391.7266 L209,1401.7266 L10,1401.7266 L10,1383.375 " fill="#EEEEEE" style="stroke:#000000;stroke-width:1.5;"/><rect fill="none" height="109.4063" style="stroke:#000000;stroke-width:1.5;" width="1275" x="10" y="1383.375"/><text fill="#000000" font-family="sans-serif" font-size="13" font-weight="bold" lengthAdjust="spacing" textLength="164" x="25" y="1397.8701">patient in Recovery Room</text><polygon fill="#181818" points="68.5,1420.0781,58.5,1424.0781,68.5,1428.0781,64.5,1424.0781" style="stroke:#181818;stroke-width:1.0;"/><polygon fill="#181818" points="780,1420.0781,790,1424.0781,780,1428.0781,784,1424.0781" style="stroke:#181818;stroke-width:1.0;"/><line style="stroke:#181818;stroke-width:1.0;" x1="62.5" x2="786" y1="1424.0781" y2="1424.0781"/><text fill="#000000" font-family="sans-serif" font-size="13" lengthAdjust="spacing" textLength="140" x="74.5" y="1419.2217">Nurse monitors recovery</text><polygon fill="#181818" points="1210.5,1450.4297,1220.5,1454.4297,1210.5,1458.4297,1214.5,1454.4297" style="stroke:#181818;stroke-width:1.0;"/><line style="stroke:#181818;stroke-width:1.0;" x1="802" x2="1216.5" y1="1454.4297" y2="1454.4297"/><text fill="#000000" font-family="sans-serif" font-size="13" lengthAdjust="spacing" textLength="81" x="809" y="1449.5732">Update status</text><polygon fill="#181818" points="68.5,1480.7813,58.5,1484.7813,68.5,1488.7813,64.5,1484.7813" style="stroke:#181818;stroke-width:1.0;"/><line style="stroke:#181818;stroke-width:1.0;" x1="62.5" x2="796" y1="1484.7813" y2="1484.7813"/><text fill="#000000" font-family="sans-serif" font-size="13" lengthAdjust="spacing" textLength="90" x="74.5" y="1479.9248">Release patient</text><path d="M647.5,1506.7813 L781.5,1506.7813 L781.5,1515.1328 L771.5,1525.1328 L647.5,1525.1328 L647.5,1506.7813 " fill="#EEEEEE" style="stroke:#000000;stroke-width:1.5;"/><rect fill="none" height="48.7031" style="stroke:#000000;stroke-width:1.5;" width="637.5" x="647.5" y="1506.7813"/><text fill="#000000" font-family="sans-serif" font-size="13" font-weight="bold" lengthAdjust="spacing" textLength="89" x="662.5" y="1521.2764">patient leaves</text><polygon fill="#181818" points="711.5,1543.4844,701.5,1547.4844,711.5,1551.4844,707.5,1547.4844" style="stroke:#181818;stroke-width:1.0;"/><line style="stroke:#181818;stroke-width:1.0;" x1="705.5" x2="1221.5" y1="1547.4844" y2="1547.4844"/><text fill="#000000" font-family="sans-serif" font-size="13" lengthAdjust="spacing" textLength="96" x="717.5" y="1542.6279">Exam to be read</text><path d="M95,1569.4844 L352,1569.4844 L352,1577.8359 L342,1587.8359 L95,1587.8359 L95,1569.4844 " fill="#EEEEEE" style="stroke:#000000;stroke-width:1.5;"/><rect fill="none" height="347.9219" style="stroke:#000000;stroke-width:1.5;" width="1444.5" x="95" y="1569.4844"/><text fill="#000000" font-family="sans-serif" font-size="13" font-weight="bold" lengthAdjust="spacing" textLength="212" x="110" y="1583.9795">dictate Diagnostic Report (x.1.6.4)</text><polygon fill="#181818" points="1205.5,1622.5391,1215.5,1626.5391,1205.5,1630.5391,1209.5,1626.5391" style="stroke:#181818;stroke-width:1.0;"/><line style="stroke:#181818;stroke-width:1.0;" x1="700.5" x2="1211.5" y1="1626.5391" y2="1626.5391"/><text fill="#000000" font-family="sans-serif" font-size="13" lengthAdjust="spacing" textLength="153" x="707.5" y="1605.3311">performs measurements &amp;</text><text fill="#000000" font-family="sans-serif" font-size="13" lengthAdjust="spacing" textLength="135" x="711.5" y="1621.6826">dictates report narrative</text><polygon fill="#181818" points="1205.5,1652.8906,1215.5,1656.8906,1205.5,1660.8906,1209.5,1656.8906" style="stroke:#181818;stroke-width:1.0;"/><line style="stroke:#181818;stroke-width:1.0;" x1="700.5" x2="1211.5" y1="1656.8906" y2="1656.8906"/><text fill="#000000" font-family="sans-serif" font-size="13" lengthAdjust="spacing" textLength="86" x="707.5" y="1652.0342">Finished report</text><polygon fill="#181818" points="1042.5,1694.418,1032.5,1698.418,1042.5,1702.418,1038.5,1698.418" style="stroke:#181818;stroke-width:1.0;"/><line style="stroke:#181818;stroke-width:1.0;" x1="1036.5" x2="1216.5" y1="1698.418" y2="1698.418"/><text fill="#000000" font-family="sans-serif" font-size="13" lengthAdjust="spacing" textLength="86" x="1048.5" y="1693.5615">Finished report</text><path d="M1232,1669.8906 L1232,1711.8906 L1372,1711.8906 L1372,1679.8906 L1362,1669.8906 L1232,1669.8906 " fill="#FEFFDD" style="stroke:#181818;stroke-width:0.5;"/><path d="M1362,1669.8906 L1362,1679.8906 L1372,1679.8906 L1362,1669.8906 " fill="#FEFFDD" style="stroke:#181818;stroke-width:0.5;"/><text fill="#000000" font-family="sans-serif" font-size="13" lengthAdjust="spacing" textLength="62" x="1238" y="1688.3857">Example 4</text><text fill="#000000" font-family="sans-serif" font-size="13" lengthAdjust="spacing" textLength="119" x="1238" y="1704.7373">(and section x.1.6.5)</text><line style="stroke:#181818;stroke-width:1.0;" x1="1227.5" x2="1269.5" y1="1756.2969" y2="1756.2969"/><line style="stroke:#181818;stroke-width:1.0;" x1="1269.5" x2="1269.5" y1="1756.2969" y2="1769.2969"/><line style="stroke:#181818;stroke-width:1.0;" x1="1228.5" x2="1269.5" y1="1769.2969" y2="1769.2969"/><polygon fill="#181818" points="1238.5,1765.2969,1228.5,1769.2969,1238.5,1773.2969,1234.5,1769.2969" style="stroke:#181818;stroke-width:1.0;"/><text fill="#000000" font-family="sans-serif" font-size="13" lengthAdjust="spacing" textLength="209" x="1234.5" y="1735.0889">apply deferred demographics update</text><text fill="#000000" font-family="sans-serif" font-size="13" lengthAdjust="spacing" textLength="72" x="1234.5" y="1751.4404">to this exam</text><polygon fill="#181818" points="1042.5,1828.3516,1032.5,1832.3516,1042.5,1836.3516,1038.5,1832.3516" style="stroke:#181818;stroke-width:1.0;"/><line style="stroke:#181818;stroke-width:1.0;" x1="1036.5" x2="1216.5" y1="1832.3516" y2="1832.3516"/><text fill="#000000" font-family="sans-serif" font-size="13" lengthAdjust="spacing" textLength="137" x="1048.5" y="1794.792">final procedure status &amp;</text><text fill="#000000" font-family="sans-serif" font-size="13" lengthAdjust="spacing" textLength="157" x="1048.5" y="1811.1436">report and images available</text><text fill="#000000" font-family="sans-serif" font-size="13" lengthAdjust="spacing" textLength="115" x="1048.5" y="1827.4951">for referring clinician</text><polygon fill="#181818" points="1443.5,1858.7031,1453.5,1862.7031,1443.5,1866.7031,1447.5,1862.7031" style="stroke:#181818;stroke-width:1.0;"/><line style="stroke:#181818;stroke-width:1.0;" x1="1222.5" x2="1449.5" y1="1862.7031" y2="1862.7031"/><text fill="#000000" font-family="sans-serif" font-size="13" lengthAdjust="spacing" textLength="107" x="1229.5" y="1857.8467">Log exposure data</text><polygon fill="#181818" points="180.5,1905.4063,170.5,1909.4063,180.5,1913.4063,176.5,1909.4063" style="stroke:#181818;stroke-width:1.0;"/><line style="stroke:#181818;stroke-width:1.0;" x1="174.5" x2="1025.5" y1="1909.4063" y2="1909.4063"/><text fill="#000000" font-family="sans-serif" font-size="13" lengthAdjust="spacing" textLength="109" x="186.5" y="1888.1982">Notify referring that</text><text fill="#000000" font-family="sans-serif" font-size="13" lengthAdjust="spacing" textLength="162" x="186.5" y="1904.5498">report and images are ready</text><path d="M1036,1880.8789 L1036,1906.8789 L1155,1906.8789 L1155,1890.8789 L1145,1880.8789 L1036,1880.8789 " fill="#FEFFDD" style="stroke:#181818;stroke-width:0.5;"/><path d="M1145,1880.8789 L1145,1890.8789 L1155,1890.8789 L1145,1880.8789 " fill="#FEFFDD" style="stroke:#181818;stroke-width:0.5;"/><text fill="#000000" font-family="sans-serif" font-size="13" lengthAdjust="spacing" textLength="98" x="1042" y="1899.374">Example 06 TBD</text><!--MD5=[108d1ab515b6211395e1512dd0cb994d]
@startuml
actor "John Smith" as patient
actor "Referring Physician" as referring
actor "Facility Clerk" as clerk
actor "Technologist" as tech
actor Radiologist as radiologist
actor "Recovery Nurse" as nurse
entity "PET/CT Modality" as pet
entity "EHR" as EHR
entity "PACS/RIS/MWL" as PACS
entity "State Dose Repository" as dose

group prior to patient arrival (pre-conditions)
referring -> EHR : place order
note right: Example 01
clerk <-> patient : pre-register
clerk -> EHR : obtain insurance authorization
EHR -> PACS : retrieve priors based on order
radiologist -> EHR : assign protocol based on order
end

group patient arrives 
patient -> clerk : arrival
end

group Patient in waiting area (x.1.6.1)
patient -> clerk : announces name
activate clerk #Salmon
clerk <-> EHR : find appointment(s)
clerk -> patient : Ask for identity information
patient -> clerk : Provide identity details
clerk <-> EHR : Find patient appointment
clerk <-> patient : choose name change process
clerk -> EHR : Update patient demographics
activate EHR #Salmon
EHR -> clerk : Demographics update scheduled
EHR -> EHR : Update Demographics
clerk -> tech : Notify arrival and new information
note right
The local procedure is to defer demographics updates
for patients that are in the exam process.

The exam will proceed using personal communication with
staff about pending demographics changes.

Demographics changes will be applied when the exam
is completed and the report delivered.
end note
deactivate clerk
activate tech #Salmon

tech -> EHR : Checks appointment order
note right: See Example 01
tech -> EHR : Checks lab results
tech -> patient : Greet patient
end

group patient in exam room (x.1.6.2, x.1.6.3)
tech <-> patient : patient interview
EHR -> PACS : patient demographics update
activate PACS #Salmon
note right: Example 03
deactivate EHR
activate pet #FFBBBB
tech -> tech : Prep patient
activate radiologist #DarkSalmon
tech <-> radiologist : confer on protocol changes
deactivate radiologist
pet -> PACS : request MWL (demographics, order, etc.)
PACS -> pet : receive MWL (demographics, order, etc.)
note right: See Example 02
deactivate PACS
tech -> pet : adjust protocol
tech -> pet : Ready for exam
activate pet #DarkSalmon
pet -> pet : Perform exam
pet -> PACS : transfer images
activate PACS #Salmon
pet -> PACS : transfer dose info as RDSR
PACS -> dose : transfer dose info as RDSR
deactivate pet
deactivate PACS
deactivate pet
deactivate tech
end

group patient in Recovery Room
nurse <-> patient : Nurse monitors recovery
activate nurse #Salmon
nurse -> PACS : Update status
nurse -> patient : Release patient
deactivate nurse
end


group patient leaves
PACS -> radiologist : Exam to be read
activate radiologist #Salmon
end

group dictate Diagnostic Report (x.1.6.4)
radiologist -> PACS : performs measurements &\n dictates report narrative
activate PACS #Salmon
radiologist -> PACS : Finished report
PACS -> EHR : Finished report
note right: Example 4 \n(and section x.1.6.5)
deactivate radiologist
activate EHR #Salmon
PACS -> PACS : apply deferred demographics update\nto this exam
PACS -> EHR : final procedure status &\nreport and images available \nfor referring clinician
PACS -> dose : Log exposure data
deactivate PACS
EHR -> referring : Notify referring that \nreport and images are ready
deactivate EHR
note right: Example 06 TBD
end

@enduml

PlantUML version 1.2022.2(Sat Mar 05 11:30:19 EST 2022)
(GPL source distribution)
Java Runtime: Java(TM) SE Runtime Environment
JVM: Java HotSpot(TM) Client VM
Default Encoding: Cp1252
Language: en
Country: US
--></g></svg>