<?xml version="1.0" encoding="UTF-8" standalone="no"?><svg xmlns="http://www.w3.org/2000/svg" xmlns:xlink="http://www.w3.org/1999/xlink" contentStyleType="text/css" height="527px" preserveAspectRatio="none" style="width:2048px;height:527px;background:#DDDDDD;" version="1.1" viewBox="0 0 2048 527" width="2048px" zoomAndPan="magnify"><defs/><g><!--MD5=[09ce52be0ee7de43c61b6e2d59bf108b]
class Person--><g id="elem_Person"><rect codeLine="8" fill="#F1F1F1" height="42.2969" id="Person" rx="3.5" ry="3.5" style="stroke:#181818;stroke-width:0.5;" width="55" x="939.5" y="20.5"/><text fill="#000000" font-family="sans-serif" font-size="14" lengthAdjust="spacing" textLength="49" x="942.5" y="38.4951">Person</text><line style="stroke:#181818;stroke-width:0.5;" x1="940.5" x2="993.5" y1="46.7969" y2="46.7969"/><line style="stroke:#181818;stroke-width:0.5;" x1="940.5" x2="993.5" y1="54.7969" y2="54.7969"/></g><!--MD5=[d6375ce38fb54f253d9e916ea05de6ec]
class Gender Identity--><g id="elem_Gender Identity"><rect codeLine="13" fill="#F1F1F1" height="156.375" id="Gender Identity" rx="3.5" ry="3.5" style="stroke:#181818;stroke-width:0.5;" width="398" x="7" y="178"/><text fill="#000000" font-family="sans-serif" font-size="14" lengthAdjust="spacing" textLength="114" x="149" y="195.9951">Gender Identity</text><line style="stroke:#181818;stroke-width:0.5;" x1="8" x2="404" y1="204.2969" y2="204.2969"/><text fill="#000000" font-family="sans-serif" font-size="14" lengthAdjust="spacing" textLength="386" x="13" y="241.5889">An individual's personal sense of being a man, woman,</text><text fill="#000000" font-family="sans-serif" font-size="14" lengthAdjust="spacing" textLength="280" x="13" y="257.8857">boy, girl, nonbinary, or something else.</text><line style="stroke:#181818;stroke-width:1.0;stroke-dasharray:1.0,2.0;" x1="8" x2="170" y1="220.4453" y2="220.4453"/><text fill="#000000" font-family="sans-serif" font-size="14" lengthAdjust="spacing" textLength="72" x="170" y="224.792">Definition</text><line style="stroke:#181818;stroke-width:1.0;stroke-dasharray:1.0,2.0;" x1="242" x2="404" y1="220.4453" y2="220.4453"/><text fill="#000000" font-family="sans-serif" font-size="14" lengthAdjust="spacing" textLength="272" x="13" y="294.4795">code or constrained text: Gender 1..1</text><text fill="#000000" font-family="sans-serif" font-size="14" lengthAdjust="spacing" textLength="205" x="13" y="310.7764">duration: Validity Period 0..1</text><text fill="#000000" font-family="sans-serif" font-size="14" lengthAdjust="spacing" textLength="155" x="13" y="327.0732">string: Comment 0..1</text><line style="stroke:#181818;stroke-width:0.5;" x1="8" x2="172" y1="273.3359" y2="273.3359"/><text fill="#000000" font-family="sans-serif" font-size="14" lengthAdjust="spacing" textLength="68" x="172" y="277.6826">Elements</text><line style="stroke:#181818;stroke-width:0.5;" x1="240" x2="404" y1="273.3359" y2="273.3359"/></g><!--MD5=[525f95c01b996f81f872c09c2f582310]
class Sex for Clinical Use--><g id="elem_Sex for Clinical Use"><rect codeLine="44" fill="#F1F1F1" height="188.9688" id="Sex for Clinical Use" rx="3.5" ry="3.5" style="stroke:#181818;stroke-width:0.5;" width="360" x="440" y="161.5"/><text fill="#000000" font-family="sans-serif" font-size="14" lengthAdjust="spacing" textLength="135" x="552.5" y="179.4951">Sex for Clinical Use</text><line style="stroke:#181818;stroke-width:0.5;" x1="441" x2="799" y1="187.7969" y2="187.7969"/><text fill="#000000" font-family="sans-serif" font-size="14" lengthAdjust="spacing" textLength="293" x="446" y="225.0889">A context-specific categorization of sex,</text><text fill="#000000" font-family="sans-serif" font-size="14" lengthAdjust="spacing" textLength="270" x="446" y="241.3857">derived from observable information,</text><text fill="#000000" font-family="sans-serif" font-size="14" lengthAdjust="spacing" textLength="348" x="446" y="257.6826">for use in diagnostics, analytics, and treatments.</text><line style="stroke:#181818;stroke-width:1.0;stroke-dasharray:1.0,2.0;" x1="441" x2="584" y1="203.9453" y2="203.9453"/><text fill="#000000" font-family="sans-serif" font-size="14" lengthAdjust="spacing" textLength="72" x="584" y="208.292">Definition</text><line style="stroke:#181818;stroke-width:1.0;stroke-dasharray:1.0,2.0;" x1="656" x2="799" y1="203.9453" y2="203.9453"/><text fill="#000000" font-family="sans-serif" font-size="14" lengthAdjust="spacing" textLength="325" x="446" y="294.2764">code or constrained text: SFCU Category 1..1</text><text fill="#000000" font-family="sans-serif" font-size="14" lengthAdjust="spacing" textLength="205" x="446" y="310.5732">duration: Validity Period 0..1</text><text fill="#000000" font-family="sans-serif" font-size="14" lengthAdjust="spacing" textLength="155" x="446" y="326.8701">string: Comment 0..1</text><text fill="#000000" font-family="sans-serif" font-size="14" lengthAdjust="spacing" textLength="278" x="446" y="343.167">string: Linked Clinical Observation 0..n</text><line style="stroke:#181818;stroke-width:0.5;" x1="441" x2="586" y1="273.1328" y2="273.1328"/><text fill="#000000" font-family="sans-serif" font-size="14" lengthAdjust="spacing" textLength="68" x="586" y="277.4795">Elements</text><line style="stroke:#181818;stroke-width:0.5;" x1="654" x2="799" y1="273.1328" y2="273.1328"/></g><!--MD5=[3e4d38e568aeddc530a44425f451f462]
class Name to Use--><g id="elem_Name to Use"><rect codeLine="54" fill="#F1F1F1" height="140.0781" id="Name to Use" rx="3.5" ry="3.5" style="stroke:#181818;stroke-width:0.5;" width="264" x="835" y="186"/><text fill="#000000" font-family="sans-serif" font-size="14" lengthAdjust="spacing" textLength="90" x="922" y="203.9951">Name to Use</text><line style="stroke:#181818;stroke-width:0.5;" x1="836" x2="1098" y1="212.2969" y2="212.2969"/><text fill="#000000" font-family="sans-serif" font-size="14" lengthAdjust="spacing" textLength="252" x="841" y="249.5889">Name to be used with interactions.</text><line style="stroke:#181818;stroke-width:1.0;stroke-dasharray:1.0,2.0;" x1="836" x2="931" y1="228.4453" y2="228.4453"/><text fill="#000000" font-family="sans-serif" font-size="14" lengthAdjust="spacing" textLength="72" x="931" y="232.792">Definition</text><line style="stroke:#181818;stroke-width:1.0;stroke-dasharray:1.0,2.0;" x1="1003" x2="1098" y1="228.4453" y2="228.4453"/><text fill="#000000" font-family="sans-serif" font-size="14" lengthAdjust="spacing" textLength="124" x="841" y="286.1826">string: Name 1..1</text><text fill="#000000" font-family="sans-serif" font-size="14" lengthAdjust="spacing" textLength="205" x="841" y="302.4795">duration: Validity Period 0..1</text><text fill="#000000" font-family="sans-serif" font-size="14" lengthAdjust="spacing" textLength="155" x="841" y="318.7764">string: Comment 0..1</text><line style="stroke:#181818;stroke-width:0.5;" x1="836" x2="933" y1="265.0391" y2="265.0391"/><text fill="#000000" font-family="sans-serif" font-size="14" lengthAdjust="spacing" textLength="68" x="933" y="269.3857">Elements</text><line style="stroke:#181818;stroke-width:0.5;" x1="1001" x2="1098" y1="265.0391" y2="265.0391"/></g><!--MD5=[08e5aa3f61cda6cafa3187552df5b59d]
class Pronouns--><g id="elem_Pronouns"><rect codeLine="65" fill="#F1F1F1" height="140.0781" id="Pronouns" rx="3.5" ry="3.5" style="stroke:#181818;stroke-width:0.5;" width="290" x="1134" y="186"/><text fill="#000000" font-family="sans-serif" font-size="14" lengthAdjust="spacing" textLength="66" x="1246" y="203.9951">Pronouns</text><line style="stroke:#181818;stroke-width:0.5;" x1="1135" x2="1423" y1="212.2969" y2="212.2969"/><text fill="#000000" font-family="sans-serif" font-size="14" lengthAdjust="spacing" textLength="277" x="1140" y="249.5889">Pronouns to be used with interactions.</text><line style="stroke:#181818;stroke-width:1.0;stroke-dasharray:1.0,2.0;" x1="1135" x2="1243" y1="228.4453" y2="228.4453"/><text fill="#000000" font-family="sans-serif" font-size="14" lengthAdjust="spacing" textLength="72" x="1243" y="232.792">Definition</text><line style="stroke:#181818;stroke-width:1.0;stroke-dasharray:1.0,2.0;" x1="1315" x2="1423" y1="228.4453" y2="228.4453"/><text fill="#000000" font-family="sans-serif" font-size="14" lengthAdjust="spacing" textLength="278" x="1140" y="286.1826">code or constrained text: Pronoun 1..1</text><text fill="#000000" font-family="sans-serif" font-size="14" lengthAdjust="spacing" textLength="205" x="1140" y="302.4795">duration: Validity Period 0..1</text><text fill="#000000" font-family="sans-serif" font-size="14" lengthAdjust="spacing" textLength="155" x="1140" y="318.7764">string: Comment 0..1</text><line style="stroke:#181818;stroke-width:0.5;" x1="1135" x2="1245" y1="265.0391" y2="265.0391"/><text fill="#000000" font-family="sans-serif" font-size="14" lengthAdjust="spacing" textLength="68" x="1245" y="269.3857">Elements</text><line style="stroke:#181818;stroke-width:0.5;" x1="1313" x2="1423" y1="265.0391" y2="265.0391"/></g><!--MD5=[db2c8764664644e6d8862a402f5d9590]
class Recorded Sex or Gender--><g id="elem_Recorded Sex or Gender"><rect codeLine="26" fill="#F1F1F1" height="237.8594" id="Recorded Sex or Gender" rx="3.5" ry="3.5" style="stroke:#181818;stroke-width:0.5;" width="582" x="1459" y="137"/><text fill="#000000" font-family="sans-serif" font-size="14" lengthAdjust="spacing" textLength="175" x="1662.5" y="154.9951">Recorded Sex or Gender</text><line style="stroke:#181818;stroke-width:0.5;" x1="1460" x2="2040" y1="163.2969" y2="163.2969"/><text fill="#000000" font-family="sans-serif" font-size="14" lengthAdjust="spacing" textLength="514" x="1465" y="200.5889">Documentation of a specific instance of sex and/or gender information.</text><line style="stroke:#181818;stroke-width:1.0;stroke-dasharray:1.0,2.0;" x1="1460" x2="1714" y1="179.4453" y2="179.4453"/><text fill="#000000" font-family="sans-serif" font-size="14" lengthAdjust="spacing" textLength="72" x="1714" y="183.792">Definition</text><line style="stroke:#181818;stroke-width:1.0;stroke-dasharray:1.0,2.0;" x1="1786" x2="2040" y1="179.4453" y2="179.4453"/><text fill="#000000" font-family="sans-serif" font-size="14" lengthAdjust="spacing" textLength="394" x="1465" y="237.1826">code or constrained text: Recorded Sex or Gender 1..1</text><text fill="#000000" font-family="sans-serif" font-size="14" lengthAdjust="spacing" textLength="570" x="1465" y="253.4795">code or constrained text: International Equivalent Recorded Sex or Gender 0..1</text><text fill="#000000" font-family="sans-serif" font-size="14" lengthAdjust="spacing" textLength="255" x="1465" y="269.7764">code or constrained text: Type 0..1</text><text fill="#000000" font-family="sans-serif" font-size="14" lengthAdjust="spacing" textLength="222" x="1465" y="286.0732">string: Record Description 0..1</text><text fill="#000000" font-family="sans-serif" font-size="14" lengthAdjust="spacing" textLength="226" x="1465" y="302.3701">datetime: Acquisition Date 0..1</text><text fill="#000000" font-family="sans-serif" font-size="14" lengthAdjust="spacing" textLength="205" x="1465" y="318.667">duration: Validity Period 0..1</text><text fill="#000000" font-family="sans-serif" font-size="14" lengthAdjust="spacing" textLength="162" x="1465" y="334.9639">string: Jurisdiction 0..1</text><text fill="#000000" font-family="sans-serif" font-size="14" lengthAdjust="spacing" textLength="215" x="1465" y="351.2607">string: Source Field Name 0..1</text><text fill="#000000" font-family="sans-serif" font-size="14" lengthAdjust="spacing" textLength="246" x="1465" y="367.5576">string: Source Field Definition 0..1</text><line style="stroke:#181818;stroke-width:0.5;" x1="1460" x2="1716" y1="216.0391" y2="216.0391"/><text fill="#000000" font-family="sans-serif" font-size="14" lengthAdjust="spacing" textLength="68" x="1716" y="220.3857">Elements</text><line style="stroke:#181818;stroke-width:0.5;" x1="1784" x2="2040" y1="216.0391" y2="216.0391"/></g><g id="elem_GMN882257"><path d="M1029.5,9.5 L1029.5,37.5 L994.592,41.5 L1029.5,45.5 L1029.5,73.0313 A3.5,3.5 0 0 0 1033,76.5313 L1455,76.5313 A3.5,3.5 0 0 0 1458.5,73.0313 L1458.5,16 L1448.5,6 L1033,6 A3.5,3.5 0 0 0 1029.5,9.5 " fill="#90EE90" style="stroke:#181818;stroke-width:1.0;"/><path d="M1448.5,6 L1448.5,14.25 A1.75,1.75 0 0 0 1450.25,16 L1458.5,16 L1448.5,6 " fill="#90EE90" style="stroke:#181818;stroke-width:1.0;"/><text fill="#454645" font-family="sans-serif" font-size="13" lengthAdjust="spacing" textLength="408" x="1035.5" y="23.0669">Some standards have person or patient classes to be extended</text><text fill="#454645" font-family="sans-serif" font-size="13" lengthAdjust="spacing" textLength="336" x="1035.5" y="38.1997">Others have segments or attributes to be extended.</text><text fill="#454645" font-family="sans-serif" font-size="13" lengthAdjust="spacing" textLength="4" x="1035.5" y="53.3325"> </text><text fill="#454645" font-family="sans-serif" font-size="13" lengthAdjust="spacing" textLength="341" x="1035.5" y="68.4653">The following model elements can change over time.</text></g><g id="elem_GMN882260"><path d="M104,461.5 L104,494.7656 A3.5,3.5 0 0 0 107.5,498.2656 L304.5,498.2656 A3.5,3.5 0 0 0 308,494.7656 L308,468 L298,458 L210,458 L206,334.254 L202,458 L107.5,458 A3.5,3.5 0 0 0 104,461.5 " fill="#90EE90" style="stroke:#181818;stroke-width:1.0;"/><path d="M298,458 L298,466.25 A1.75,1.75 0 0 0 299.75,468 L308,468 L298,458 " fill="#90EE90" style="stroke:#181818;stroke-width:1.0;"/><text fill="#454645" font-family="sans-serif" font-size="13" lengthAdjust="spacing" textLength="183" x="110" y="475.0669">Used to inform interpersonal</text><text fill="#454645" font-family="sans-serif" font-size="13" lengthAdjust="spacing" textLength="106" x="110" y="490.1997">communications</text></g><g id="elem_GMN882263"><path d="M460,461.5 L460,494.7656 A3.5,3.5 0 0 0 463.5,498.2656 L736.5,498.2656 A3.5,3.5 0 0 0 740,494.7656 L740,468 L730,458 L605.756,458 L611.489,350.619 L597.756,458 L463.5,458 A3.5,3.5 0 0 0 460,461.5 " fill="#90EE90" style="stroke:#181818;stroke-width:1.0;"/><path d="M730,458 L730,466.25 A1.75,1.75 0 0 0 731.75,468 L740,468 L730,458 " fill="#90EE90" style="stroke:#181818;stroke-width:1.0;"/><text fill="#454645" font-family="sans-serif" font-size="13" lengthAdjust="spacing" textLength="257" x="466" y="475.0669">Used during clinical activities like orders,</text><text fill="#454645" font-family="sans-serif" font-size="13" lengthAdjust="spacing" textLength="259" x="466" y="490.1997">prescriptions, reports, and observations.</text></g><g id="elem_GMN882266"><path d="M1625.5,438.5 L1625.5,517.1641 A3.5,3.5 0 0 0 1629,520.6641 L1871,520.6641 A3.5,3.5 0 0 0 1874.5,517.1641 L1874.5,445 L1864.5,435 L1754,435 L1750,375.05 L1746,435 L1629,435 A3.5,3.5 0 0 0 1625.5,438.5 " fill="#90EE90" style="stroke:#181818;stroke-width:1.0;"/><path d="M1864.5,435 L1864.5,443.25 A1.75,1.75 0 0 0 1866.25,445 L1874.5,445 L1864.5,435 " fill="#90EE90" style="stroke:#181818;stroke-width:1.0;"/><text fill="#454645" font-family="sans-serif" font-size="13" lengthAdjust="spacing" textLength="228" x="1631.5" y="452.0669">This captures a recorded value that</text><text fill="#454645" font-family="sans-serif" font-size="13" lengthAdjust="spacing" textLength="216" x="1631.5" y="467.1997">may be labeled as sex or gender:</text><text fill="#454645" font-family="sans-serif" font-size="13" lengthAdjust="spacing" textLength="94" x="1635.5" y="482.3325">- Birth Records</text><text fill="#454645" font-family="sans-serif" font-size="13" lengthAdjust="spacing" textLength="127" x="1635.5" y="497.4653">- Insurance Records</text><text fill="#454645" font-family="sans-serif" font-size="13" lengthAdjust="spacing" textLength="122" x="1635.5" y="512.5981">- Official document</text></g><g id="elem_GMN882269"><path d="M775.5,454 L775.5,502.3984 A3.5,3.5 0 0 0 779,505.8984 L1153,505.8984 A3.5,3.5 0 0 0 1156.5,502.3984 L1156.5,460.5 L1146.5,450.5 L970.121,450.5 L966.686,326.006 L962.121,450.5 L779,450.5 A3.5,3.5 0 0 0 775.5,454 " fill="#90EE90" style="stroke:#181818;stroke-width:1.0;"/><path d="M1146.5,450.5 L1146.5,458.75 A1.75,1.75 0 0 0 1148.25,460.5 L1156.5,460.5 L1146.5,450.5 " fill="#90EE90" style="stroke:#181818;stroke-width:1.0;"/><text fill="#454645" font-family="sans-serif" font-size="13" lengthAdjust="spacing" textLength="360" x="781.5" y="467.5669">Name usage applies to more than sex and gender uses.</text><text fill="#454645" font-family="sans-serif" font-size="13" lengthAdjust="spacing" textLength="293" x="781.5" y="482.6997">The use of the appropriate name is important</text><text fill="#454645" font-family="sans-serif" font-size="13" lengthAdjust="spacing" textLength="162" x="789.5" y="497.8325">in many social situations.</text></g><g id="elem_GMN882272"><path d="M1191.5,461.5 L1191.5,494.7656 A3.5,3.5 0 0 0 1195,498.2656 L1587,498.2656 A3.5,3.5 0 0 0 1590.5,494.7656 L1590.5,468 L1580.5,458 L1385.3,458 L1314.13,326.006 L1377.3,458 L1195,458 A3.5,3.5 0 0 0 1191.5,461.5 " fill="#90EE90" style="stroke:#181818;stroke-width:1.0;"/><path d="M1580.5,458 L1580.5,466.25 A1.75,1.75 0 0 0 1582.25,468 L1590.5,468 L1580.5,458 " fill="#90EE90" style="stroke:#181818;stroke-width:1.0;"/><text fill="#454645" font-family="sans-serif" font-size="13" lengthAdjust="spacing" textLength="370" x="1197.5" y="475.0669">Pronoun usage is defined just for English language usage.</text><text fill="#454645" font-family="sans-serif" font-size="13" lengthAdjust="spacing" textLength="334" x="1197.5" y="490.1997">Similar issues in other languages are a future effort.</text></g><!--MD5=[5111eea78be59570436d55bac33e34c7]
reverse link Person to Gender Identity--><g id="link_Person_Gender Identity"><path codeLine="2" d="M926.181,45.003 C833.936,51.633 603.315,73.709 422,137 C391.339,147.703 359.846,162.451 330.717,177.899 " fill="none" id="Person-backto-Gender Identity" style="stroke:#454645;stroke-width:1.0;"/><polygon fill="none" points="939.267,44.1,933.006,40.5222,927.2954,44.9255,933.5564,48.5033,939.267,44.1" style="stroke:#454645;stroke-width:1.0;"/><text fill="#000000" font-family="sans-serif" font-size="13" lengthAdjust="spacing" textLength="24" x="317.1081" y="167.0634">0..n</text></g><!--MD5=[8b9e11410453903445642da41e2217a6]
reverse link Person to Sex for Clinical Use--><g id="link_Person_Sex for Clinical Use"><path codeLine="3" d="M927.979,66.396 C890.058,89.619 829.997,126.399 772.944,161.338 " fill="none" id="Person-backto-Sex for Clinical Use" style="stroke:#454645;stroke-width:1.0;"/><polygon fill="none" points="939.481,59.352,932.2753,59.0738,929.247,65.6182,936.4527,65.8964,939.481,59.352" style="stroke:#454645;stroke-width:1.0;"/><text fill="#000000" font-family="sans-serif" font-size="13" lengthAdjust="spacing" textLength="24" x="759.735" y="150.5894">0..n</text></g><!--MD5=[b4f6d2e9c10277f0d91c2fb509b6d4ec]
reverse link Person to Name to Use--><g id="link_Person_Name to Use"><path codeLine="4" d="M967,76.031 C967,105.338 967,148.835 967,185.608 " fill="none" id="Person-backto-Name to Use" style="stroke:#454645;stroke-width:1.0;"/><polygon fill="none" points="967,62.875,963,68.875,967,74.875,971,68.875,967,62.875" style="stroke:#454645;stroke-width:1.0;"/><text fill="#000000" font-family="sans-serif" font-size="13" lengthAdjust="spacing" textLength="24" x="941.8188" y="175.0101">0..n</text></g><!--MD5=[df2f82ae543c7380a68be1c7b27b8395]
reverse link Person to Pronouns--><g id="link_Person_Pronouns"><path codeLine="5" d="M1002.988,70.74 C1006.002,72.906 1009.03,75.019 1012,77 C1056.38,106.631 1071.22,107.982 1116,137 C1139.46,152.198 1164.17,169.421 1187.06,185.918 " fill="none" id="Person-backto-Pronouns" style="stroke:#454645;stroke-width:1.0;"/><polygon fill="none" points="992.276,62.798,994.7129,69.5849,1001.9149,69.9458,999.4781,63.1589,992.276,62.798" style="stroke:#454645;stroke-width:1.0;"/><text fill="#000000" font-family="sans-serif" font-size="13" lengthAdjust="spacing" textLength="24" x="1152.3412" y="174.9871">0..n</text></g><!--MD5=[aac47c1f2313e6a95dfeb5dba70c81de]
reverse link Person to Recorded Sex or Gender--><g id="link_Person_Recorded Sex or Gender"><path codeLine="6" d="M999.36,70.294 C1003.436,72.877 1007.69,75.196 1012,77 C1189.58,151.354 1254.55,89.02 1441,137 C1446.84,138.503 1452.72,140.081 1458.63,141.725 " fill="none" id="Person-backto-Recorded Sex or Gender" style="stroke:#454645;stroke-width:1.0;"/><polygon fill="none" points="988.456,62.529,991.0227,69.2679,998.2303,69.4905,995.6637,62.7516,988.456,62.529" style="stroke:#454645;stroke-width:1.0;"/><text fill="#000000" font-family="sans-serif" font-size="13" lengthAdjust="spacing" textLength="24" x="1426.5717" y="135.5609">0..n</text></g><!--MD5=[e23d17f040abe96703e6f3cd0766d0fb]
@startuml
!theme toy
Person o- - "0..n" "Gender Identity"
Person o- - "0..n" "Sex for Clinical Use"
Person o- - "0..n" "Name to Use"
Person o- - "0..n" "Pronouns"
Person o- - "0..n" "Recorded Sex or Gender"

class Person {
   }

note right of "Person" : Some standards have person or patient classes to be extended\nOthers have segments or attributes to be extended.\n\nThe following model elements can change over time.

class "Gender Identity" {
..Definition..
An individual's personal sense of being a man, woman,\nboy, girl, nonbinary, or something else.
__Elements__
   code or constrained text: Gender 1..1
   duration: Validity Period 0..1
   string: Comment 0..1
   }

note bottom of "Gender Identity" : Used to inform interpersonal\ncommunications

note bottom of "Sex for Clinical Use" : Used during clinical activities like orders,\nprescriptions, reports, and observations.

class "Recorded Sex or Gender" {
..Definition..
Documentation of a specific instance of sex and/or gender information.
__Elements__
   code or constrained text: Recorded Sex or Gender 1..1
   code or constrained text: International Equivalent Recorded Sex or Gender 0..1
   code or constrained text: Type 0..1
   string: Record Description 0..1
   datetime: Acquisition Date 0..1
   duration: Validity Period 0..1
   string: Jurisdiction 0..1
   string: Source Field Name 0..1
   string: Source Field Definition 0..1
   }

note bottom of "Recorded Sex or Gender" : This captures a recorded value that\nmay be labeled as sex or gender:\n - Birth Records \n - Insurance Records \n - Official document


class "Sex for Clinical Use" {
..Definition..
A context-specific categorization of sex,\nderived from observable information,\nfor use in diagnostics, analytics, and treatments.
__Elements__
   code or constrained text: SFCU Category 1..1
   duration: Validity Period 0..1
   string: Comment 0..1
   string: Linked Clinical Observation 0..n
   }

class "Name to Use" {
..Definition..
Name to be used with interactions.
__Elements__
   string: Name 1..1
   duration: Validity Period 0..1
   string: Comment 0..1
   }

note bottom of "Name to Use" : Name usage applies to more than sex and gender uses.\nThe use of the appropriate name is important\n  in many social situations.

class "Pronouns" {
..Definition..
Pronouns to be used with interactions.
__Elements__
   code or constrained text: Pronoun 1..1
   duration: Validity Period 0..1
   string: Comment 0..1
   }

note bottom of "Pronouns" : Pronoun usage is defined just for English language usage.  \nSimilar issues in other languages are a future effort.

hide "Gender Identity" circle
hide "Name to Use" circle
hide "Recorded Sex or Gender" circle 
hide "Sex for Clinical Use" circle
hide "Person" circle
hide "Pronouns" circle
@enduml

@startuml
skinparam BackgroundColor DDDDDD
skinparam shadowing false
skinparam RoundCorner 7
skinparam ArrowColor 454645
skinparam FontColor 454645
skinparam SequenceLifeLineBorderColor 454645
skinparam SequenceGroupHeaderFontColor 454645
skinparam SequenceGroupFontColor 454645
skinparam SequenceGroupBorderColor 454645
skinparam SequenceGroupBorderThickness 1

skinparam sequenceDivider {
    BorderColor 454645
    BorderThickness 1
    FontColor 454645
}

skinparam participant {
    BackgroundColor FF6F61
    BorderColor 454645
    FontColor White
    BorderThickness 1.5
}

skinparam database {
    BackgroundColor 98DDDE
    BorderColor 454645
    FontColor 454645
}

skinparam entity {
    BackgroundColor FFDA29
    BorderColor 454645
    FontColor 454645
}

skinparam note {
    BackgroundColor LightGreen
    BorderColor 454645
    FontColor 454645
    BorderThickness 1
}

skinparam actor {
    BackgroundColor 454645
    BorderColor 454645
    FontColor 454645
}

skinparam boundary {
    BackgroundColor FFDA29
    BorderColor 454645
    FontColor 454645
}

skinparam control {
    BackgroundColor FFDA29
    BorderColor 454645
    FontColor 454645
}

skinparam collections {
    BackgroundColor FF6F61
    BorderColor 454645
    FontColor 454645
    BorderThickness 1.5
}

skinparam queue {
    BackgroundColor FF6F61
    BorderColor 454645
    FontColor FFF
    BorderThickness 1.5
}
Person o- - "0..n" "Gender Identity"
Person o- - "0..n" "Sex for Clinical Use"
Person o- - "0..n" "Name to Use"
Person o- - "0..n" "Pronouns"
Person o- - "0..n" "Recorded Sex or Gender"

class Person {
   }

note right of "Person" : Some standards have person or patient classes to be extended\nOthers have segments or attributes to be extended.\n\nThe following model elements can change over time.

class "Gender Identity" {
..Definition..
An individual's personal sense of being a man, woman,\nboy, girl, nonbinary, or something else.
__Elements__
   code or constrained text: Gender 1..1
   duration: Validity Period 0..1
   string: Comment 0..1
   }

note bottom of "Gender Identity" : Used to inform interpersonal\ncommunications

note bottom of "Sex for Clinical Use" : Used during clinical activities like orders,\nprescriptions, reports, and observations.

class "Recorded Sex or Gender" {
..Definition..
Documentation of a specific instance of sex and/or gender information.
__Elements__
   code or constrained text: Recorded Sex or Gender 1..1
   code or constrained text: International Equivalent Recorded Sex or Gender 0..1
   code or constrained text: Type 0..1
   string: Record Description 0..1
   datetime: Acquisition Date 0..1
   duration: Validity Period 0..1
   string: Jurisdiction 0..1
   string: Source Field Name 0..1
   string: Source Field Definition 0..1
   }

note bottom of "Recorded Sex or Gender" : This captures a recorded value that\nmay be labeled as sex or gender:\n - Birth Records \n - Insurance Records \n - Official document


class "Sex for Clinical Use" {
..Definition..
A context-specific categorization of sex,\nderived from observable information,\nfor use in diagnostics, analytics, and treatments.
__Elements__
   code or constrained text: SFCU Category 1..1
   duration: Validity Period 0..1
   string: Comment 0..1
   string: Linked Clinical Observation 0..n
   }

class "Name to Use" {
..Definition..
Name to be used with interactions.
__Elements__
   string: Name 1..1
   duration: Validity Period 0..1
   string: Comment 0..1
   }

note bottom of "Name to Use" : Name usage applies to more than sex and gender uses.\nThe use of the appropriate name is important\n  in many social situations.

class "Pronouns" {
..Definition..
Pronouns to be used with interactions.
__Elements__
   code or constrained text: Pronoun 1..1
   duration: Validity Period 0..1
   string: Comment 0..1
   }

note bottom of "Pronouns" : Pronoun usage is defined just for English language usage.  \nSimilar issues in other languages are a future effort.

hide "Gender Identity" circle
hide "Name to Use" circle
hide "Recorded Sex or Gender" circle 
hide "Sex for Clinical Use" circle
hide "Person" circle
hide "Pronouns" circle
@enduml

PlantUML version 1.2022.8beta2(Unknown compile time)
(GPL source distribution)
Java Runtime: Java(TM) SE Runtime Environment
JVM: Java HotSpot(TM) 64-Bit Server VM
Default Encoding: UTF-8
Language: en
Country: US
--></g></svg>