<?xml version="1.0" encoding="UTF-8" standalone="no"?><svg xmlns="http://www.w3.org/2000/svg" xmlns:xlink="http://www.w3.org/1999/xlink" contentStyleType="text/css" height="1917px" preserveAspectRatio="none" style="width:1580px;height:1917px;background:#FFFFFF;" version="1.1" viewBox="0 0 1580 1917" width="1580px" zoomAndPan="magnify"><defs/><g><rect fill="#FA8072" height="332.4297" style="stroke:#181818;stroke-width:1.0;" width="10" x="289" y="380.75"/><rect fill="#FA8072" height="594.0703" style="stroke:#181818;stroke-width:1.0;" width="10" x="512" y="713.1797"/><rect fill="#E9967A" height="34.2344" style="stroke:#181818;stroke-width:1.0;" width="10" x="708" y="1026.1406"/><rect fill="#FA8072" height="134.1719" style="stroke:#181818;stroke-width:1.0;" width="10" x="708" y="1486.6563"/><rect fill="#FA8072" height="58.4688" style="stroke:#181818;stroke-width:1.0;" width="10" x="810.5" y="1367.7188"/><rect fill="#FFBBBB" height="351.3438" style="stroke:#181818;stroke-width:1.0;" width="10" x="932" y="955.9063"/><rect fill="#E9967A" height="129.9375" style="stroke:#181818;stroke-width:1.0;" width="10" x="937" y="1177.3125"/><rect fill="#FA8072" height="429.75" style="stroke:#181818;stroke-width:1.0;" width="10" x="1041" y="556.1563"/><rect fill="#FA8072" height="190.875" style="stroke:#181818;stroke-width:1.0;" width="10" x="1041" y="1620.8281"/><rect fill="#FA8072" height="162.9375" style="stroke:#181818;stroke-width:1.0;" width="10" x="1242" y="955.9063"/><rect fill="#FA8072" height="58.4688" style="stroke:#181818;stroke-width:1.0;" width="10" x="1242" y="1248.7813"/><rect fill="#FA8072" height="204.875" style="stroke:#181818;stroke-width:1.0;" width="10" x="1242" y="1562.3594"/><rect height="169.4063" style="stroke:#000000;stroke-width:1.5;fill:none;" width="1300" x="10" y="98.4063"/><rect height="46.4688" style="stroke:#000000;stroke-width:1.5;fill:none;" width="337" x="10" y="281.8125"/><rect height="528.9219" style="stroke:#000000;stroke-width:1.5;fill:none;" width="1192" x="10" y="342.2813"/><rect height="430.0469" style="stroke:#000000;stroke-width:1.5;fill:none;" width="1564" x="10" y="885.2031"/><rect height="104.9375" style="stroke:#000000;stroke-width:1.5;fill:none;" width="1300" x="10" y="1329.25"/><rect height="46.4688" style="stroke:#000000;stroke-width:1.5;fill:none;" width="646" x="664" y="1448.1875"/><rect height="311.0469" style="stroke:#000000;stroke-width:1.5;fill:none;" width="1474" x="100" y="1508.6563"/><line style="stroke:#181818;stroke-width:0.5;fill:none;stroke-dasharray:5.0,5.0;" x1="60" x2="60" y1="81.4063" y2="1836.7031"/><line style="stroke:#181818;stroke-width:0.5;fill:none;stroke-dasharray:5.0,5.0;" x1="175" x2="175" y1="81.4063" y2="1836.7031"/><line style="stroke:#181818;stroke-width:0.5;fill:none;stroke-dasharray:5.0,5.0;" x1="294" x2="294" y1="81.4063" y2="1836.7031"/><line style="stroke:#181818;stroke-width:0.5;fill:none;stroke-dasharray:5.0,5.0;" x1="517" x2="517" y1="81.4063" y2="1836.7031"/><line style="stroke:#181818;stroke-width:0.5;fill:none;stroke-dasharray:5.0,5.0;" x1="713" x2="713" y1="81.4063" y2="1836.7031"/><line style="stroke:#181818;stroke-width:0.5;fill:none;stroke-dasharray:5.0,5.0;" x1="815" x2="815" y1="81.4063" y2="1836.7031"/><line style="stroke:#181818;stroke-width:0.5;fill:none;stroke-dasharray:5.0,5.0;" x1="937" x2="937" y1="81.4063" y2="1836.7031"/><line style="stroke:#181818;stroke-width:0.5;fill:none;stroke-dasharray:5.0,5.0;" x1="1046" x2="1046" y1="81.4063" y2="1836.7031"/><line style="stroke:#181818;stroke-width:0.5;fill:none;stroke-dasharray:5.0,5.0;" x1="1247" x2="1247" y1="81.4063" y2="1836.7031"/><line style="stroke:#181818;stroke-width:0.5;fill:none;stroke-dasharray:5.0,5.0;" x1="1488" x2="1488" y1="81.4063" y2="1836.7031"/><text fill="#000000" font-family="sans-serif" font-size="14" lengthAdjust="spacing" textLength="74" x="20" y="77.9883">John Smith</text><ellipse cx="60" cy="13.5" fill="#E2E2F0" rx="8" ry="8" style="stroke:#181818;stroke-width:0.5;"/><path d="M60,21.5 L60,48.5 M47,29.5 L73,29.5 M60,48.5 L47,63.5 M60,48.5 L73,63.5 " fill="none" style="stroke:#181818;stroke-width:0.5;"/><text fill="#000000" font-family="sans-serif" font-size="14" lengthAdjust="spacing" textLength="74" x="20" y="1848.6914">John Smith</text><ellipse cx="60" cy="1860.6094" fill="#E2E2F0" rx="8" ry="8" style="stroke:#181818;stroke-width:0.5;"/><path d="M60,1868.6094 L60,1895.6094 M47,1876.6094 L73,1876.6094 M60,1895.6094 L47,1910.6094 M60,1895.6094 L73,1910.6094 " fill="none" style="stroke:#181818;stroke-width:0.5;"/><text fill="#000000" font-family="sans-serif" font-size="14" lengthAdjust="spacing" textLength="125" x="110" y="77.9883">Referring Physician</text><ellipse cx="175.5" cy="13.5" fill="#E2E2F0" rx="8" ry="8" style="stroke:#181818;stroke-width:0.5;"/><path d="M175.5,21.5 L175.5,48.5 M162.5,29.5 L188.5,29.5 M175.5,48.5 L162.5,63.5 M175.5,48.5 L188.5,63.5 " fill="none" style="stroke:#181818;stroke-width:0.5;"/><text fill="#000000" font-family="sans-serif" font-size="14" lengthAdjust="spacing" textLength="125" x="110" y="1848.6914">Referring Physician</text><ellipse cx="175.5" cy="1860.6094" fill="#E2E2F0" rx="8" ry="8" style="stroke:#181818;stroke-width:0.5;"/><path d="M175.5,1868.6094 L175.5,1895.6094 M162.5,1876.6094 L188.5,1876.6094 M175.5,1895.6094 L162.5,1910.6094 M175.5,1895.6094 L188.5,1910.6094 " fill="none" style="stroke:#181818;stroke-width:0.5;"/><text fill="#000000" font-family="sans-serif" font-size="14" lengthAdjust="spacing" textLength="80" x="251" y="77.9883">Facility Clerk</text><ellipse cx="294" cy="13.5" fill="#E2E2F0" rx="8" ry="8" style="stroke:#181818;stroke-width:0.5;"/><path d="M294,21.5 L294,48.5 M281,29.5 L307,29.5 M294,48.5 L281,63.5 M294,48.5 L307,63.5 " fill="none" style="stroke:#181818;stroke-width:0.5;"/><text fill="#000000" font-family="sans-serif" font-size="14" lengthAdjust="spacing" textLength="80" x="251" y="1848.6914">Facility Clerk</text><ellipse cx="294" cy="1860.6094" fill="#E2E2F0" rx="8" ry="8" style="stroke:#181818;stroke-width:0.5;"/><path d="M294,1868.6094 L294,1895.6094 M281,1876.6094 L307,1876.6094 M294,1895.6094 L281,1910.6094 M294,1895.6094 L307,1910.6094 " fill="none" style="stroke:#181818;stroke-width:0.5;"/><text fill="#000000" font-family="sans-serif" font-size="14" lengthAdjust="spacing" textLength="86" x="471" y="77.9883">Technologist</text><ellipse cx="517" cy="13.5" fill="#E2E2F0" rx="8" ry="8" style="stroke:#181818;stroke-width:0.5;"/><path d="M517,21.5 L517,48.5 M504,29.5 L530,29.5 M517,48.5 L504,63.5 M517,48.5 L530,63.5 " fill="none" style="stroke:#181818;stroke-width:0.5;"/><text fill="#000000" font-family="sans-serif" font-size="14" lengthAdjust="spacing" textLength="86" x="471" y="1848.6914">Technologist</text><ellipse cx="517" cy="1860.6094" fill="#E2E2F0" rx="8" ry="8" style="stroke:#181818;stroke-width:0.5;"/><path d="M517,1868.6094 L517,1895.6094 M504,1876.6094 L530,1876.6094 M517,1895.6094 L504,1910.6094 M517,1895.6094 L530,1910.6094 " fill="none" style="stroke:#181818;stroke-width:0.5;"/><text fill="#000000" font-family="sans-serif" font-size="14" lengthAdjust="spacing" textLength="72" x="674" y="77.9883">Radiologist</text><ellipse cx="713" cy="13.5" fill="#E2E2F0" rx="8" ry="8" style="stroke:#181818;stroke-width:0.5;"/><path d="M713,21.5 L713,48.5 M700,29.5 L726,29.5 M713,48.5 L700,63.5 M713,48.5 L726,63.5 " fill="none" style="stroke:#181818;stroke-width:0.5;"/><text fill="#000000" font-family="sans-serif" font-size="14" lengthAdjust="spacing" textLength="72" x="674" y="1848.6914">Radiologist</text><ellipse cx="713" cy="1860.6094" fill="#E2E2F0" rx="8" ry="8" style="stroke:#181818;stroke-width:0.5;"/><path d="M713,1868.6094 L713,1895.6094 M700,1876.6094 L726,1876.6094 M713,1895.6094 L700,1910.6094 M713,1895.6094 L726,1910.6094 " fill="none" style="stroke:#181818;stroke-width:0.5;"/><text fill="#000000" font-family="sans-serif" font-size="14" lengthAdjust="spacing" textLength="101" x="762" y="77.9883">Recovery Nurse</text><ellipse cx="815.5" cy="13.5" fill="#E2E2F0" rx="8" ry="8" style="stroke:#181818;stroke-width:0.5;"/><path d="M815.5,21.5 L815.5,48.5 M802.5,29.5 L828.5,29.5 M815.5,48.5 L802.5,63.5 M815.5,48.5 L828.5,63.5 " fill="none" style="stroke:#181818;stroke-width:0.5;"/><text fill="#000000" font-family="sans-serif" font-size="14" lengthAdjust="spacing" textLength="101" x="762" y="1848.6914">Recovery Nurse</text><ellipse cx="815.5" cy="1860.6094" fill="#E2E2F0" rx="8" ry="8" style="stroke:#181818;stroke-width:0.5;"/><path d="M815.5,1868.6094 L815.5,1895.6094 M802.5,1876.6094 L828.5,1876.6094 M815.5,1895.6094 L802.5,1910.6094 M815.5,1895.6094 L828.5,1910.6094 " fill="none" style="stroke:#181818;stroke-width:0.5;"/><text fill="#000000" font-family="sans-serif" font-size="14" lengthAdjust="spacing" textLength="110" x="879" y="77.9883">PET/CT Modality</text><ellipse cx="937" cy="49" fill="#E2E2F0" rx="12" ry="12" style="stroke:#181818;stroke-width:0.5;"/><line style="stroke:#181818;stroke-width:0.5;" x1="925" x2="949" y1="63" y2="63"/><text fill="#000000" font-family="sans-serif" font-size="14" lengthAdjust="spacing" textLength="110" x="879" y="1848.6914">PET/CT Modality</text><ellipse cx="937" cy="1868.1094" fill="#E2E2F0" rx="12" ry="12" style="stroke:#181818;stroke-width:0.5;"/><line style="stroke:#181818;stroke-width:0.5;" x1="925" x2="949" y1="1882.1094" y2="1882.1094"/><text fill="#000000" font-family="sans-serif" font-size="14" lengthAdjust="spacing" textLength="26" x="1030" y="77.9883">EHR</text><ellipse cx="1046" cy="49" fill="#E2E2F0" rx="12" ry="12" style="stroke:#181818;stroke-width:0.5;"/><line style="stroke:#181818;stroke-width:0.5;" x1="1034" x2="1058" y1="63" y2="63"/><text fill="#000000" font-family="sans-serif" font-size="14" lengthAdjust="spacing" textLength="26" x="1030" y="1848.6914">EHR</text><ellipse cx="1046" cy="1868.1094" fill="#E2E2F0" rx="12" ry="12" style="stroke:#181818;stroke-width:0.5;"/><line style="stroke:#181818;stroke-width:0.5;" x1="1034" x2="1058" y1="1882.1094" y2="1882.1094"/><text fill="#000000" font-family="sans-serif" font-size="14" lengthAdjust="spacing" textLength="100" x="1194" y="77.9883">PACS/RIS/MWL</text><ellipse cx="1247" cy="49" fill="#E2E2F0" rx="12" ry="12" style="stroke:#181818;stroke-width:0.5;"/><line style="stroke:#181818;stroke-width:0.5;" x1="1235" x2="1259" y1="63" y2="63"/><text fill="#000000" font-family="sans-serif" font-size="14" lengthAdjust="spacing" textLength="100" x="1194" y="1848.6914">PACS/RIS/MWL</text><ellipse cx="1247" cy="1868.1094" fill="#E2E2F0" rx="12" ry="12" style="stroke:#181818;stroke-width:0.5;"/><line style="stroke:#181818;stroke-width:0.5;" x1="1235" x2="1259" y1="1882.1094" y2="1882.1094"/><text fill="#000000" font-family="sans-serif" font-size="14" lengthAdjust="spacing" textLength="146" x="1412" y="77.9883">State Dose Repository</text><ellipse cx="1488" cy="49" fill="#E2E2F0" rx="12" ry="12" style="stroke:#181818;stroke-width:0.5;"/><line style="stroke:#181818;stroke-width:0.5;" x1="1476" x2="1500" y1="63" y2="63"/><text fill="#000000" font-family="sans-serif" font-size="14" lengthAdjust="spacing" textLength="146" x="1412" y="1848.6914">State Dose Repository</text><ellipse cx="1488" cy="1868.1094" fill="#E2E2F0" rx="12" ry="12" style="stroke:#181818;stroke-width:0.5;"/><line style="stroke:#181818;stroke-width:0.5;" x1="1476" x2="1500" y1="1882.1094" y2="1882.1094"/><rect fill="#FA8072" height="332.4297" style="stroke:#181818;stroke-width:1.0;" width="10" x="289" y="380.75"/><rect fill="#FA8072" height="594.0703" style="stroke:#181818;stroke-width:1.0;" width="10" x="512" y="713.1797"/><rect fill="#E9967A" height="34.2344" style="stroke:#181818;stroke-width:1.0;" width="10" x="708" y="1026.1406"/><rect fill="#FA8072" height="134.1719" style="stroke:#181818;stroke-width:1.0;" width="10" x="708" y="1486.6563"/><rect fill="#FA8072" height="58.4688" style="stroke:#181818;stroke-width:1.0;" width="10" x="810.5" y="1367.7188"/><rect fill="#FFBBBB" height="351.3438" style="stroke:#181818;stroke-width:1.0;" width="10" x="932" y="955.9063"/><rect fill="#E9967A" height="129.9375" style="stroke:#181818;stroke-width:1.0;" width="10" x="937" y="1177.3125"/><rect fill="#FA8072" height="429.75" style="stroke:#181818;stroke-width:1.0;" width="10" x="1041" y="556.1563"/><rect fill="#FA8072" height="190.875" style="stroke:#181818;stroke-width:1.0;" width="10" x="1041" y="1620.8281"/><rect fill="#FA8072" height="162.9375" style="stroke:#181818;stroke-width:1.0;" width="10" x="1242" y="955.9063"/><rect fill="#FA8072" height="58.4688" style="stroke:#181818;stroke-width:1.0;" width="10" x="1242" y="1248.7813"/><rect fill="#FA8072" height="204.875" style="stroke:#181818;stroke-width:1.0;" width="10" x="1242" y="1562.3594"/><path d="M10,98.4063 L309,98.4063 L309,105.6406 L299,115.6406 L10,115.6406 L10,98.4063 " fill="#EEEEEE" style="stroke:#000000;stroke-width:1.5;"/><rect fill="none" height="169.4063" style="stroke:#000000;stroke-width:1.5;" width="1300" x="10" y="98.4063"/><text fill="#000000" font-family="sans-serif" font-size="13" font-weight="bold" lengthAdjust="spacing" textLength="254" x="25" y="111.4668">prior to patient arrival (pre-conditions)</text><polygon fill="#181818" points="1034,135.875,1044,139.875,1034,143.875,1038,139.875" style="stroke:#181818;stroke-width:1.0;"/><line style="stroke:#181818;stroke-width:1.0;" x1="175.5" x2="1040" y1="139.875" y2="139.875"/><text fill="#000000" font-family="sans-serif" font-size="13" lengthAdjust="spacing" textLength="66" x="182.5" y="134.7012">place order</text><path d="M1051,120.6406 L1051,145.6406 L1138,145.6406 L1138,130.6406 L1128,120.6406 L1051,120.6406 " fill="#FEFFDD" style="stroke:#181818;stroke-width:0.5;"/><path d="M1128,120.6406 L1128,130.6406 L1138,130.6406 L1128,120.6406 " fill="#FEFFDD" style="stroke:#181818;stroke-width:0.5;"/><text fill="#000000" font-family="sans-serif" font-size="13" lengthAdjust="spacing" textLength="66" x="1057" y="137.7012">Example 01</text><polygon fill="#181818" points="71,168.1094,61,172.1094,71,176.1094,67,172.1094" style="stroke:#181818;stroke-width:1.0;"/><polygon fill="#181818" points="282,168.1094,292,172.1094,282,176.1094,286,172.1094" style="stroke:#181818;stroke-width:1.0;"/><line style="stroke:#181818;stroke-width:1.0;" x1="65" x2="288" y1="172.1094" y2="172.1094"/><text fill="#000000" font-family="sans-serif" font-size="13" lengthAdjust="spacing" textLength="67" x="77" y="166.9355">pre-register</text><polygon fill="#181818" points="1034,197.3438,1044,201.3438,1034,205.3438,1038,201.3438" style="stroke:#181818;stroke-width:1.0;"/><line style="stroke:#181818;stroke-width:1.0;" x1="294" x2="1040" y1="201.3438" y2="201.3438"/><text fill="#000000" font-family="sans-serif" font-size="13" lengthAdjust="spacing" textLength="175" x="301" y="196.1699">obtain insurance authorization</text><polygon fill="#181818" points="1235,226.5781,1245,230.5781,1235,234.5781,1239,230.5781" style="stroke:#181818;stroke-width:1.0;"/><line style="stroke:#181818;stroke-width:1.0;" x1="1046" x2="1241" y1="230.5781" y2="230.5781"/><text fill="#000000" font-family="sans-serif" font-size="13" lengthAdjust="spacing" textLength="171" x="1053" y="225.4043">retrieve priors based on order</text><polygon fill="#181818" points="1034,255.8125,1044,259.8125,1034,263.8125,1038,259.8125" style="stroke:#181818;stroke-width:1.0;"/><line style="stroke:#181818;stroke-width:1.0;" x1="713" x2="1040" y1="259.8125" y2="259.8125"/><text fill="#000000" font-family="sans-serif" font-size="13" lengthAdjust="spacing" textLength="184" x="720" y="254.6387">assign protocol based on order</text><path d="M10,281.8125 L150,281.8125 L150,289.0469 L140,299.0469 L10,299.0469 L10,281.8125 " fill="#EEEEEE" style="stroke:#000000;stroke-width:1.5;"/><rect fill="none" height="46.4688" style="stroke:#000000;stroke-width:1.5;" width="337" x="10" y="281.8125"/><text fill="#000000" font-family="sans-serif" font-size="13" font-weight="bold" lengthAdjust="spacing" textLength="95" x="25" y="294.873">patient arrives</text><polygon fill="#181818" points="282,316.2813,292,320.2813,282,324.2813,286,320.2813" style="stroke:#181818;stroke-width:1.0;"/><line style="stroke:#181818;stroke-width:1.0;" x1="60" x2="288" y1="320.2813" y2="320.2813"/><text fill="#000000" font-family="sans-serif" font-size="13" lengthAdjust="spacing" textLength="34" x="67" y="315.1074">arrival</text><path d="M10,342.2813 L254,342.2813 L254,349.5156 L244,359.5156 L10,359.5156 L10,342.2813 " fill="#EEEEEE" style="stroke:#000000;stroke-width:1.5;"/><rect fill="none" height="528.9219" style="stroke:#000000;stroke-width:1.5;" width="1192" x="10" y="342.2813"/><text fill="#000000" font-family="sans-serif" font-size="13" font-weight="bold" lengthAdjust="spacing" textLength="199" x="25" y="355.3418">Patient in waiting area (x.1.6.1)</text><polygon fill="#181818" points="277,376.75,287,380.75,277,384.75,281,380.75" style="stroke:#181818;stroke-width:1.0;"/><line style="stroke:#181818;stroke-width:1.0;" x1="60" x2="283" y1="380.75" y2="380.75"/><text fill="#000000" font-family="sans-serif" font-size="13" lengthAdjust="spacing" textLength="99" x="67" y="375.5762">announces name</text><polygon fill="#181818" points="310,405.9844,300,409.9844,310,413.9844,306,409.9844" style="stroke:#181818;stroke-width:1.0;"/><polygon fill="#181818" points="1034,405.9844,1044,409.9844,1034,413.9844,1038,409.9844" style="stroke:#181818;stroke-width:1.0;"/><line style="stroke:#181818;stroke-width:1.0;" x1="304" x2="1040" y1="409.9844" y2="409.9844"/><text fill="#000000" font-family="sans-serif" font-size="13" lengthAdjust="spacing" textLength="116" x="316" y="404.8105">find appointment(s)</text><polygon fill="#181818" points="71,435.2188,61,439.2188,71,443.2188,67,439.2188" style="stroke:#181818;stroke-width:1.0;"/><line style="stroke:#181818;stroke-width:1.0;" x1="65" x2="288" y1="439.2188" y2="439.2188"/><text fill="#000000" font-family="sans-serif" font-size="13" lengthAdjust="spacing" textLength="157" x="77" y="434.0449">Ask for identity information</text><polygon fill="#181818" points="277,464.4531,287,468.4531,277,472.4531,281,468.4531" style="stroke:#181818;stroke-width:1.0;"/><line style="stroke:#181818;stroke-width:1.0;" x1="60" x2="283" y1="468.4531" y2="468.4531"/><text fill="#000000" font-family="sans-serif" font-size="13" lengthAdjust="spacing" textLength="130" x="67" y="463.2793">Provide identity details</text><polygon fill="#181818" points="310,493.6875,300,497.6875,310,501.6875,306,497.6875" style="stroke:#181818;stroke-width:1.0;"/><polygon fill="#181818" points="1034,493.6875,1044,497.6875,1034,501.6875,1038,497.6875" style="stroke:#181818;stroke-width:1.0;"/><line style="stroke:#181818;stroke-width:1.0;" x1="304" x2="1040" y1="497.6875" y2="497.6875"/><text fill="#000000" font-family="sans-serif" font-size="13" lengthAdjust="spacing" textLength="145" x="316" y="492.5137">Find patient appointment</text><polygon fill="#181818" points="71,522.9219,61,526.9219,71,530.9219,67,526.9219" style="stroke:#181818;stroke-width:1.0;"/><polygon fill="#181818" points="277,522.9219,287,526.9219,277,530.9219,281,526.9219" style="stroke:#181818;stroke-width:1.0;"/><line style="stroke:#181818;stroke-width:1.0;" x1="65" x2="283" y1="526.9219" y2="526.9219"/><text fill="#000000" font-family="sans-serif" font-size="13" lengthAdjust="spacing" textLength="176" x="77" y="521.748">choose name change process</text><polygon fill="#181818" points="1029,552.1563,1039,556.1563,1029,560.1563,1033,556.1563" style="stroke:#181818;stroke-width:1.0;"/><line style="stroke:#181818;stroke-width:1.0;" x1="299" x2="1035" y1="556.1563" y2="556.1563"/><text fill="#000000" font-family="sans-serif" font-size="13" lengthAdjust="spacing" textLength="174" x="306" y="550.9824">Update patient demographics</text><polygon fill="#181818" points="310,581.3906,300,585.3906,310,589.3906,306,585.3906" style="stroke:#181818;stroke-width:1.0;"/><line style="stroke:#181818;stroke-width:1.0;" x1="304" x2="1040" y1="585.3906" y2="585.3906"/><text fill="#000000" font-family="sans-serif" font-size="13" lengthAdjust="spacing" textLength="194" x="316" y="580.2168">Demographics update scheduled</text><line style="stroke:#181818;stroke-width:1.0;" x1="1051" x2="1093" y1="614.625" y2="614.625"/><line style="stroke:#181818;stroke-width:1.0;" x1="1093" x2="1093" y1="614.625" y2="627.625"/><line style="stroke:#181818;stroke-width:1.0;" x1="1052" x2="1093" y1="627.625" y2="627.625"/><polygon fill="#181818" points="1062,623.625,1052,627.625,1062,631.625,1058,627.625" style="stroke:#181818;stroke-width:1.0;"/><text fill="#000000" font-family="sans-serif" font-size="13" lengthAdjust="spacing" textLength="132" x="1058" y="609.4512">Update Demographics</text><polygon fill="#181818" points="500,709.1797,510,713.1797,500,717.1797,504,713.1797" style="stroke:#181818;stroke-width:1.0;"/><line style="stroke:#181818;stroke-width:1.0;" x1="294" x2="506" y1="713.1797" y2="713.1797"/><text fill="#000000" font-family="sans-serif" font-size="13" lengthAdjust="spacing" textLength="194" x="301" y="708.0059">Notify arrival and new information</text><path d="M527,640.625 L527,771.625 L888,771.625 L888,650.625 L878,640.625 L527,640.625 " fill="#FEFFDD" style="stroke:#181818;stroke-width:0.5;"/><path d="M878,640.625 L878,650.625 L888,650.625 L878,640.625 " fill="#FEFFDD" style="stroke:#181818;stroke-width:0.5;"/><text fill="#000000" font-family="sans-serif" font-size="13" lengthAdjust="spacing" textLength="318" x="533" y="657.6855">The local procedure is to defer demographics updates</text><text fill="#000000" font-family="sans-serif" font-size="13" lengthAdjust="spacing" textLength="235" x="533" y="672.9199">for patients that are in the exam process.</text><text fill="#000000" font-family="sans-serif" font-size="13" lengthAdjust="spacing" textLength="3" x="533" y="688.1543"> </text><text fill="#000000" font-family="sans-serif" font-size="13" lengthAdjust="spacing" textLength="340" x="533" y="703.3887">The exam will proceed using personal communication with</text><text fill="#000000" font-family="sans-serif" font-size="13" lengthAdjust="spacing" textLength="260" x="533" y="718.623">staff about pending demographics changes.</text><text fill="#000000" font-family="sans-serif" font-size="13" lengthAdjust="spacing" textLength="3" x="533" y="733.8574"> </text><text fill="#000000" font-family="sans-serif" font-size="13" lengthAdjust="spacing" textLength="315" x="533" y="749.0918">Demographics changes will be applied when the exam</text><text fill="#000000" font-family="sans-serif" font-size="13" lengthAdjust="spacing" textLength="219" x="533" y="764.3262">is completed and the report delivered.</text><polygon fill="#181818" points="1029,797.7344,1039,801.7344,1029,805.7344,1033,801.7344" style="stroke:#181818;stroke-width:1.0;"/><line style="stroke:#181818;stroke-width:1.0;" x1="522" x2="1035" y1="801.7344" y2="801.7344"/><text fill="#000000" font-family="sans-serif" font-size="13" lengthAdjust="spacing" textLength="154" x="529" y="796.5605">Checks appointment order</text><path d="M1056,782.5 L1056,807.5 L1169,807.5 L1169,792.5 L1159,782.5 L1056,782.5 " fill="#FEFFDD" style="stroke:#181818;stroke-width:0.5;"/><path d="M1159,782.5 L1159,792.5 L1169,792.5 L1159,782.5 " fill="#FEFFDD" style="stroke:#181818;stroke-width:0.5;"/><text fill="#000000" font-family="sans-serif" font-size="13" lengthAdjust="spacing" textLength="92" x="1062" y="799.5605">See Example 01</text><polygon fill="#181818" points="1029,829.9688,1039,833.9688,1029,837.9688,1033,833.9688" style="stroke:#181818;stroke-width:1.0;"/><line style="stroke:#181818;stroke-width:1.0;" x1="522" x2="1035" y1="833.9688" y2="833.9688"/><text fill="#000000" font-family="sans-serif" font-size="13" lengthAdjust="spacing" textLength="106" x="529" y="828.7949">Checks lab results</text><polygon fill="#181818" points="71,859.2031,61,863.2031,71,867.2031,67,863.2031" style="stroke:#181818;stroke-width:1.0;"/><line style="stroke:#181818;stroke-width:1.0;" x1="65" x2="511" y1="863.2031" y2="863.2031"/><text fill="#000000" font-family="sans-serif" font-size="13" lengthAdjust="spacing" textLength="74" x="77" y="858.0293">Greet patient</text><path d="M10,885.2031 L291,885.2031 L291,892.4375 L281,902.4375 L10,902.4375 L10,885.2031 " fill="#EEEEEE" style="stroke:#000000;stroke-width:1.5;"/><rect fill="none" height="430.0469" style="stroke:#000000;stroke-width:1.5;" width="1564" x="10" y="885.2031"/><text fill="#000000" font-family="sans-serif" font-size="13" font-weight="bold" lengthAdjust="spacing" textLength="236" x="25" y="898.2637">patient in exam room (x.1.6.2, x.1.6.3)</text><polygon fill="#181818" points="71,919.6719,61,923.6719,71,927.6719,67,923.6719" style="stroke:#181818;stroke-width:1.0;"/><polygon fill="#181818" points="500,919.6719,510,923.6719,500,927.6719,504,923.6719" style="stroke:#181818;stroke-width:1.0;"/><line style="stroke:#181818;stroke-width:1.0;" x1="65" x2="506" y1="923.6719" y2="923.6719"/><text fill="#000000" font-family="sans-serif" font-size="13" lengthAdjust="spacing" textLength="94" x="77" y="918.498">patient interview</text><polygon fill="#181818" points="1230,951.9063,1240,955.9063,1230,959.9063,1234,955.9063" style="stroke:#181818;stroke-width:1.0;"/><line style="stroke:#181818;stroke-width:1.0;" x1="1051" x2="1236" y1="955.9063" y2="955.9063"/><text fill="#000000" font-family="sans-serif" font-size="13" lengthAdjust="spacing" textLength="172" x="1058" y="950.7324">patient demographics update</text><path d="M1257,936.6719 L1257,961.6719 L1344,961.6719 L1344,946.6719 L1334,936.6719 L1257,936.6719 " fill="#FEFFDD" style="stroke:#181818;stroke-width:0.5;"/><path d="M1334,936.6719 L1334,946.6719 L1344,946.6719 L1334,936.6719 " fill="#FEFFDD" style="stroke:#181818;stroke-width:0.5;"/><text fill="#000000" font-family="sans-serif" font-size="13" lengthAdjust="spacing" textLength="66" x="1263" y="953.7324">Example 02</text><line style="stroke:#181818;stroke-width:1.0;" x1="522" x2="569" y1="1013.1406" y2="1013.1406"/><line style="stroke:#181818;stroke-width:1.0;" x1="569" x2="569" y1="1013.1406" y2="1026.1406"/><line style="stroke:#181818;stroke-width:1.0;" x1="528" x2="569" y1="1026.1406" y2="1026.1406"/><polygon fill="#181818" points="538,1022.1406,528,1026.1406,538,1030.1406,534,1026.1406" style="stroke:#181818;stroke-width:1.0;"/><text fill="#000000" font-family="sans-serif" font-size="13" lengthAdjust="spacing" textLength="69" x="534" y="1007.9668">Prep patient</text><polygon fill="#181818" points="533,1056.375,523,1060.375,533,1064.375,529,1060.375" style="stroke:#181818;stroke-width:1.0;"/><polygon fill="#181818" points="701,1056.375,711,1060.375,701,1064.375,705,1060.375" style="stroke:#181818;stroke-width:1.0;"/><line style="stroke:#181818;stroke-width:1.0;" x1="527" x2="707" y1="1060.375" y2="1060.375"/><text fill="#000000" font-family="sans-serif" font-size="13" lengthAdjust="spacing" textLength="162" x="539" y="1055.2012">confer on protocol changes</text><polygon fill="#181818" points="1230,1085.6094,1240,1089.6094,1230,1093.6094,1234,1089.6094" style="stroke:#181818;stroke-width:1.0;"/><line style="stroke:#181818;stroke-width:1.0;" x1="942" x2="1236" y1="1089.6094" y2="1089.6094"/><text fill="#000000" font-family="sans-serif" font-size="13" lengthAdjust="spacing" textLength="238" x="949" y="1084.4355">request MWL (demographics, order, etc.)</text><polygon fill="#181818" points="953,1114.8438,943,1118.8438,953,1122.8438,949,1118.8438" style="stroke:#181818;stroke-width:1.0;"/><line style="stroke:#181818;stroke-width:1.0;" x1="947" x2="1246" y1="1118.8438" y2="1118.8438"/><text fill="#000000" font-family="sans-serif" font-size="13" lengthAdjust="spacing" textLength="235" x="959" y="1113.6699">receive MWL (demographics, order, etc.)</text><polygon fill="#181818" points="920,1144.0781,930,1148.0781,920,1152.0781,924,1148.0781" style="stroke:#181818;stroke-width:1.0;"/><line style="stroke:#181818;stroke-width:1.0;" x1="522" x2="926" y1="1148.0781" y2="1148.0781"/><text fill="#000000" font-family="sans-serif" font-size="13" lengthAdjust="spacing" textLength="89" x="529" y="1142.9043">adjust protocol</text><polygon fill="#181818" points="925,1173.3125,935,1177.3125,925,1181.3125,929,1177.3125" style="stroke:#181818;stroke-width:1.0;"/><line style="stroke:#181818;stroke-width:1.0;" x1="522" x2="931" y1="1177.3125" y2="1177.3125"/><text fill="#000000" font-family="sans-serif" font-size="13" lengthAdjust="spacing" textLength="90" x="529" y="1172.1387">Ready for exam</text><line style="stroke:#181818;stroke-width:1.0;" x1="947" x2="989" y1="1206.5469" y2="1206.5469"/><line style="stroke:#181818;stroke-width:1.0;" x1="989" x2="989" y1="1206.5469" y2="1219.5469"/><line style="stroke:#181818;stroke-width:1.0;" x1="948" x2="989" y1="1219.5469" y2="1219.5469"/><polygon fill="#181818" points="958,1215.5469,948,1219.5469,958,1223.5469,954,1219.5469" style="stroke:#181818;stroke-width:1.0;"/><text fill="#000000" font-family="sans-serif" font-size="13" lengthAdjust="spacing" textLength="80" x="954" y="1201.373">Perform exam</text><polygon fill="#181818" points="1230,1244.7813,1240,1248.7813,1230,1252.7813,1234,1248.7813" style="stroke:#181818;stroke-width:1.0;"/><line style="stroke:#181818;stroke-width:1.0;" x1="947" x2="1236" y1="1248.7813" y2="1248.7813"/><text fill="#000000" font-family="sans-serif" font-size="13" lengthAdjust="spacing" textLength="91" x="954" y="1243.6074">transfer images</text><polygon fill="#181818" points="1230,1274.0156,1240,1278.0156,1230,1282.0156,1234,1278.0156" style="stroke:#181818;stroke-width:1.0;"/><line style="stroke:#181818;stroke-width:1.0;" x1="947" x2="1236" y1="1278.0156" y2="1278.0156"/><text fill="#000000" font-family="sans-serif" font-size="13" lengthAdjust="spacing" textLength="158" x="954" y="1272.8418">transfer dose info as RDSR</text><polygon fill="#181818" points="1476,1303.25,1486,1307.25,1476,1311.25,1480,1307.25" style="stroke:#181818;stroke-width:1.0;"/><line style="stroke:#181818;stroke-width:1.0;" x1="1247" x2="1482" y1="1307.25" y2="1307.25"/><text fill="#000000" font-family="sans-serif" font-size="13" lengthAdjust="spacing" textLength="158" x="1254" y="1302.0762">transfer dose info as RDSR</text><path d="M10,1329.25 L217,1329.25 L217,1336.4844 L207,1346.4844 L10,1346.4844 L10,1329.25 " fill="#EEEEEE" style="stroke:#000000;stroke-width:1.5;"/><rect fill="none" height="104.9375" style="stroke:#000000;stroke-width:1.5;" width="1300" x="10" y="1329.25"/><text fill="#000000" font-family="sans-serif" font-size="13" font-weight="bold" lengthAdjust="spacing" textLength="162" x="25" y="1342.3105">patient in Recovery Room</text><polygon fill="#181818" points="71,1363.7188,61,1367.7188,71,1371.7188,67,1367.7188" style="stroke:#181818;stroke-width:1.0;"/><polygon fill="#181818" points="798.5,1363.7188,808.5,1367.7188,798.5,1371.7188,802.5,1367.7188" style="stroke:#181818;stroke-width:1.0;"/><line style="stroke:#181818;stroke-width:1.0;" x1="65" x2="804.5" y1="1367.7188" y2="1367.7188"/><text fill="#000000" font-family="sans-serif" font-size="13" lengthAdjust="spacing" textLength="141" x="77" y="1362.5449">Nurse monitors recovery</text><polygon fill="#181818" points="1235,1392.9531,1245,1396.9531,1235,1400.9531,1239,1396.9531" style="stroke:#181818;stroke-width:1.0;"/><line style="stroke:#181818;stroke-width:1.0;" x1="820.5" x2="1241" y1="1396.9531" y2="1396.9531"/><text fill="#000000" font-family="sans-serif" font-size="13" lengthAdjust="spacing" textLength="82" x="827.5" y="1391.7793">Update status</text><polygon fill="#181818" points="71,1422.1875,61,1426.1875,71,1430.1875,67,1426.1875" style="stroke:#181818;stroke-width:1.0;"/><line style="stroke:#181818;stroke-width:1.0;" x1="65" x2="814.5" y1="1426.1875" y2="1426.1875"/><text fill="#000000" font-family="sans-serif" font-size="13" lengthAdjust="spacing" textLength="89" x="77" y="1421.0137">Release patient</text><path d="M664,1448.1875 L799,1448.1875 L799,1455.4219 L789,1465.4219 L664,1465.4219 L664,1448.1875 " fill="#EEEEEE" style="stroke:#000000;stroke-width:1.5;"/><rect fill="none" height="46.4688" style="stroke:#000000;stroke-width:1.5;" width="646" x="664" y="1448.1875"/><text fill="#000000" font-family="sans-serif" font-size="13" font-weight="bold" lengthAdjust="spacing" textLength="90" x="679" y="1461.248">patient leaves</text><polygon fill="#181818" points="729,1482.6563,719,1486.6563,729,1490.6563,725,1486.6563" style="stroke:#181818;stroke-width:1.0;"/><line style="stroke:#181818;stroke-width:1.0;" x1="723" x2="1246" y1="1486.6563" y2="1486.6563"/><text fill="#000000" font-family="sans-serif" font-size="13" lengthAdjust="spacing" textLength="93" x="735" y="1481.4824">Exam to be read</text><path d="M100,1508.6563 L364,1508.6563 L364,1515.8906 L354,1525.8906 L100,1525.8906 L100,1508.6563 " fill="#EEEEEE" style="stroke:#000000;stroke-width:1.5;"/><rect fill="none" height="311.0469" style="stroke:#000000;stroke-width:1.5;" width="1474" x="100" y="1508.6563"/><text fill="#000000" font-family="sans-serif" font-size="13" font-weight="bold" lengthAdjust="spacing" textLength="219" x="115" y="1521.7168">dictate Diagnostic Report (x.1.6.4)</text><polygon fill="#181818" points="1230,1558.3594,1240,1562.3594,1230,1566.3594,1234,1562.3594" style="stroke:#181818;stroke-width:1.0;"/><line style="stroke:#181818;stroke-width:1.0;" x1="718" x2="1236" y1="1562.3594" y2="1562.3594"/><text fill="#000000" font-family="sans-serif" font-size="13" lengthAdjust="spacing" textLength="155" x="725" y="1541.9512">performs measurements &amp;</text><text fill="#000000" font-family="sans-serif" font-size="13" lengthAdjust="spacing" textLength="137" x="728" y="1557.1855">dictates report narrative</text><polygon fill="#181818" points="1230,1587.5938,1240,1591.5938,1230,1595.5938,1234,1591.5938" style="stroke:#181818;stroke-width:1.0;"/><line style="stroke:#181818;stroke-width:1.0;" x1="718" x2="1236" y1="1591.5938" y2="1591.5938"/><text fill="#000000" font-family="sans-serif" font-size="13" lengthAdjust="spacing" textLength="87" x="725" y="1586.4199">Finished report</text><polygon fill="#181818" points="1062,1616.8281,1052,1620.8281,1062,1624.8281,1058,1620.8281" style="stroke:#181818;stroke-width:1.0;"/><line style="stroke:#181818;stroke-width:1.0;" x1="1056" x2="1241" y1="1620.8281" y2="1620.8281"/><text fill="#000000" font-family="sans-serif" font-size="13" lengthAdjust="spacing" textLength="87" x="1068" y="1615.6543">Finished report</text><line style="stroke:#181818;stroke-width:1.0;" x1="1252" x2="1294" y1="1665.2969" y2="1665.2969"/><line style="stroke:#181818;stroke-width:1.0;" x1="1294" x2="1294" y1="1665.2969" y2="1678.2969"/><line style="stroke:#181818;stroke-width:1.0;" x1="1253" x2="1294" y1="1678.2969" y2="1678.2969"/><polygon fill="#181818" points="1263,1674.2969,1253,1678.2969,1263,1682.2969,1259,1678.2969" style="stroke:#181818;stroke-width:1.0;"/><text fill="#000000" font-family="sans-serif" font-size="13" lengthAdjust="spacing" textLength="217" x="1259" y="1644.8887">apply deferred demographics update</text><text fill="#000000" font-family="sans-serif" font-size="13" lengthAdjust="spacing" textLength="70" x="1259" y="1660.123">to this exam</text><polygon fill="#181818" points="1062,1734,1052,1738,1062,1742,1058,1738" style="stroke:#181818;stroke-width:1.0;"/><line style="stroke:#181818;stroke-width:1.0;" x1="1056" x2="1241" y1="1738" y2="1738"/><text fill="#000000" font-family="sans-serif" font-size="13" lengthAdjust="spacing" textLength="139" x="1068" y="1702.3574">final procedure status &amp;</text><text fill="#000000" font-family="sans-serif" font-size="13" lengthAdjust="spacing" textLength="160" x="1068" y="1717.5918">report and images available</text><text fill="#000000" font-family="sans-serif" font-size="13" lengthAdjust="spacing" textLength="119" x="1068" y="1732.8262">for referring clinician</text><polygon fill="#181818" points="1476,1763.2344,1486,1767.2344,1476,1771.2344,1480,1767.2344" style="stroke:#181818;stroke-width:1.0;"/><line style="stroke:#181818;stroke-width:1.0;" x1="1247" x2="1482" y1="1767.2344" y2="1767.2344"/><text fill="#000000" font-family="sans-serif" font-size="13" lengthAdjust="spacing" textLength="109" x="1254" y="1762.0605">Log exposure data</text><polygon fill="#181818" points="186.5,1807.7031,176.5,1811.7031,186.5,1815.7031,182.5,1811.7031" style="stroke:#181818;stroke-width:1.0;"/><line style="stroke:#181818;stroke-width:1.0;" x1="180.5" x2="1045" y1="1811.7031" y2="1811.7031"/><text fill="#000000" font-family="sans-serif" font-size="13" lengthAdjust="spacing" textLength="112" x="192.5" y="1791.2949">Notify referring that</text><text fill="#000000" font-family="sans-serif" font-size="13" lengthAdjust="spacing" textLength="162" x="192.5" y="1806.5293">report and images are ready</text><path d="M1056,1784.8516 L1056,1809.8516 L1297,1809.8516 L1297,1794.8516 L1287,1784.8516 L1056,1784.8516 " fill="#FEFFDD" style="stroke:#181818;stroke-width:0.5;"/><path d="M1287,1784.8516 L1287,1794.8516 L1297,1794.8516 L1287,1784.8516 " fill="#FEFFDD" style="stroke:#181818;stroke-width:0.5;"/><text fill="#000000" font-family="sans-serif" font-size="13" lengthAdjust="spacing" textLength="220" x="1062" y="1801.9121">Examples 3 (FHIR), 4 (V2), and 5 (CDA)</text><!--MD5=[8edcd7510e1737b265f47ce1bbffd18b]
@startuml
actor "John Smith" as patient
actor "Referring Physician" as referring
actor "Facility Clerk" as clerk
actor "Technologist" as tech
actor Radiologist as radiologist
actor "Recovery Nurse" as nurse
entity "PET/CT Modality" as pet
entity "EHR" as EHR
entity "PACS/RIS/MWL" as PACS
entity "State Dose Repository" as dose

group prior to patient arrival (pre-conditions)
referring -> EHR : place order
note right: Example 01
clerk <-> patient : pre-register
clerk -> EHR : obtain insurance authorization
EHR -> PACS : retrieve priors based on order
radiologist -> EHR : assign protocol based on order
end

group patient arrives 
patient -> clerk : arrival
end

group Patient in waiting area (x.1.6.1)
patient -> clerk : announces name
activate clerk #Salmon
clerk <-> EHR : find appointment(s)
clerk -> patient : Ask for identity information
patient -> clerk : Provide identity details
clerk <-> EHR : Find patient appointment
clerk <-> patient : choose name change process
clerk -> EHR : Update patient demographics
activate EHR #Salmon
EHR -> clerk : Demographics update scheduled
EHR -> EHR : Update Demographics
clerk -> tech : Notify arrival and new information
note right
The local procedure is to defer demographics updates
for patients that are in the exam process.

The exam will proceed using personal communication with
staff about pending demographics changes.

Demographics changes will be applied when the exam
is completed and the report delivered.
end note
deactivate clerk
activate tech #Salmon

tech -> EHR : Checks appointment order
note right: See Example 01
tech -> EHR : Checks lab results
tech -> patient : Greet patient
end

group patient in exam room (x.1.6.2, x.1.6.3)
tech <-> patient : patient interview
EHR -> PACS : patient demographics update
activate PACS #Salmon
note right: Example 02
deactivate EHR
activate pet #FFBBBB
tech -> tech : Prep patient
activate radiologist #DarkSalmon
tech <-> radiologist : confer on protocol changes
deactivate radiologist
pet -> PACS : request MWL (demographics, order, etc.)
PACS -> pet : receive MWL (demographics, order, etc.)
deactivate PACS
tech -> pet : adjust protocol
tech -> pet : Ready for exam
activate pet #DarkSalmon
pet -> pet : Perform exam
pet -> PACS : transfer images
activate PACS #Salmon
pet -> PACS : transfer dose info as RDSR
PACS -> dose : transfer dose info as RDSR
deactivate pet
deactivate PACS
deactivate pet
deactivate tech
end

group patient in Recovery Room
nurse <-> patient : Nurse monitors recovery
activate nurse #Salmon
nurse -> PACS : Update status
nurse -> patient : Release patient
deactivate nurse
end


group patient leaves
PACS -> radiologist : Exam to be read
activate radiologist #Salmon
end

group dictate Diagnostic Report (x.1.6.4)
radiologist -> PACS : performs measurements &\n dictates report narrative
activate PACS #Salmon
radiologist -> PACS : Finished report
PACS -> EHR : Finished report
deactivate radiologist
activate EHR #Salmon
PACS -> PACS : apply deferred demographics update\nto this exam
PACS -> EHR : final procedure status &\nreport and images available \nfor referring clinician
PACS -> dose : Log exposure data
deactivate PACS
EHR -> referring : Notify referring that \nreport and images are ready
deactivate EHR
note right: Examples 3 (FHIR), 4 (V2), and 5 (CDA)
end

@enduml

PlantUML version 1.2022.6(Tue Jun 21 13:34:49 EDT 2022)
(GPL source distribution)
Java Runtime: OpenJDK Runtime Environment
JVM: OpenJDK 64-Bit Server VM
Default Encoding: UTF-8
Language: en
Country: US
--></g></svg>