<?xml version="1.0" encoding="us-ascii" standalone="no"?><svg xmlns="http://www.w3.org/2000/svg" xmlns:xlink="http://www.w3.org/1999/xlink" contentStyleType="text/css" height="1781px" preserveAspectRatio="none" style="width:1676px;height:1781px;background:#FFFFFF;" version="1.1" viewBox="0 0 1676 1781" width="1676px" zoomAndPan="magnify"><defs/><g><rect fill="#F5F5F5" height="979.5469" style="stroke:#181818;stroke-width:1.0;" width="10" x="52.5" y="341.4219"/><rect fill="#F5F5F5" height="325.8672" style="stroke:#181818;stroke-width:1.0;" width="10" x="282.5" y="341.4219"/><rect fill="#F5F5F5" height="683.6797" style="stroke:#181818;stroke-width:1.0;" width="10" x="555.5" y="637.2891"/><rect fill="#F5F5F5" height="30" style="stroke:#181818;stroke-width:1.0;" width="10" x="767.5" y="929.1016"/><rect fill="#F5F5F5" height="268.8125" style="stroke:#181818;stroke-width:1.0;" width="10" x="875.5" y="1021.8047"/><rect fill="#F5F5F5" height="329.8672" style="stroke:#181818;stroke-width:1.0;" width="10" x="987.5" y="523.5313"/><rect fill="#F5F5F5" height="198.7578" style="stroke:#181818;stroke-width:1.0;" width="10" x="1155.5" y="853.3984"/><rect fill="#F5F5F5" height="60.7031" style="stroke:#181818;stroke-width:1.0;" width="10" x="1155.5" y="1156.2109"/><rect fill="#F5F5F5" height="213.4609" style="stroke:#181818;stroke-width:1.0;" width="10" x="1155.5" y="1427.0234"/><rect fill="#F5F5F5" height="73.7031" style="stroke:#181818;stroke-width:1.0;" width="10" x="1388.5" y="1216.9141"/><rect fill="#F5F5F5" height="240.4609" style="stroke:#181818;stroke-width:1.0;" width="10" x="1549.5" y="1186.5625"/><rect fill="none" height="187.1094" style="stroke:#000000;stroke-width:1.5;" width="1294.5" x="10" y="99.6094"/><rect fill="none" height="374.5703" style="stroke:#000000;stroke-width:1.5;" width="1655.5" x="10" y="300.7188"/><rect fill="none" height="277.8125" style="stroke:#000000;stroke-width:1.5;" width="1260" x="10" y="689.2891"/><rect fill="none" height="347.8672" style="stroke:#000000;stroke-width:1.5;" width="1638.5" x="10" y="981.1016"/><rect fill="none" height="122.4063" style="stroke:#000000;stroke-width:1.5;" width="946" x="724.5" y="1342.9688"/><rect fill="none" height="203.4609" style="stroke:#000000;stroke-width:1.5;" width="1298.5" x="95" y="1479.375"/><line style="stroke:#181818;stroke-width:0.5;stroke-dasharray:5.0,5.0;" x1="57" x2="57" y1="82.6094" y2="1699.8359"/><line style="stroke:#181818;stroke-width:0.5;stroke-dasharray:5.0,5.0;" x1="169" x2="169" y1="82.6094" y2="1699.8359"/><line style="stroke:#181818;stroke-width:0.5;stroke-dasharray:5.0,5.0;" x1="287" x2="287" y1="82.6094" y2="1699.8359"/><line style="stroke:#181818;stroke-width:0.5;stroke-dasharray:5.0,5.0;" x1="560" x2="560" y1="82.6094" y2="1699.8359"/><line style="stroke:#181818;stroke-width:0.5;stroke-dasharray:5.0,5.0;" x1="772.5" x2="772.5" y1="82.6094" y2="1699.8359"/><line style="stroke:#181818;stroke-width:0.5;stroke-dasharray:5.0,5.0;" x1="880.5" x2="880.5" y1="82.6094" y2="1699.8359"/><line style="stroke:#181818;stroke-width:0.5;stroke-dasharray:5.0,5.0;" x1="992.5" x2="992.5" y1="82.6094" y2="1699.8359"/><line style="stroke:#181818;stroke-width:0.5;stroke-dasharray:5.0,5.0;" x1="1160" x2="1160" y1="82.6094" y2="1699.8359"/><line style="stroke:#181818;stroke-width:0.5;stroke-dasharray:5.0,5.0;" x1="1393.5" x2="1393.5" y1="82.6094" y2="1699.8359"/><line style="stroke:#181818;stroke-width:0.5;stroke-dasharray:5.0,5.0;" x1="1554.5" x2="1554.5" y1="82.6094" y2="1699.8359"/><text fill="#000000" font-family="sans-serif" font-size="14" lengthAdjust="spacing" textLength="69" x="20" y="79.5332">John Smith</text><ellipse cx="57.5" cy="13.5" fill="#E2E2F0" rx="8" ry="8" style="stroke:#181818;stroke-width:0.5;"/><path d="M57.5,21.5 L57.5,48.5 M44.5,29.5 L70.5,29.5 M57.5,48.5 L44.5,63.5 M57.5,48.5 L70.5,63.5 " fill="none" style="stroke:#181818;stroke-width:0.5;"/><text fill="#000000" font-family="sans-serif" font-size="14" lengthAdjust="spacing" textLength="69" x="20" y="1713.3691">John Smith</text><ellipse cx="57.5" cy="1724.9453" fill="#E2E2F0" rx="8" ry="8" style="stroke:#181818;stroke-width:0.5;"/><path d="M57.5,1732.9453 L57.5,1759.9453 M44.5,1740.9453 L70.5,1740.9453 M57.5,1759.9453 L44.5,1774.9453 M57.5,1759.9453 L70.5,1774.9453 " fill="none" style="stroke:#181818;stroke-width:0.5;"/><text fill="#000000" font-family="sans-serif" font-size="14" lengthAdjust="spacing" textLength="123" x="105" y="79.5332">Referring Physician</text><ellipse cx="169.5" cy="13.5" fill="#E2E2F0" rx="8" ry="8" style="stroke:#181818;stroke-width:0.5;"/><path d="M169.5,21.5 L169.5,48.5 M156.5,29.5 L182.5,29.5 M169.5,48.5 L156.5,63.5 M169.5,48.5 L182.5,63.5 " fill="none" style="stroke:#181818;stroke-width:0.5;"/><text fill="#000000" font-family="sans-serif" font-size="14" lengthAdjust="spacing" textLength="123" x="105" y="1713.3691">Referring Physician</text><ellipse cx="169.5" cy="1724.9453" fill="#E2E2F0" rx="8" ry="8" style="stroke:#181818;stroke-width:0.5;"/><path d="M169.5,1732.9453 L169.5,1759.9453 M156.5,1740.9453 L182.5,1740.9453 M169.5,1759.9453 L156.5,1774.9453 M169.5,1759.9453 L182.5,1774.9453 " fill="none" style="stroke:#181818;stroke-width:0.5;"/><text fill="#000000" font-family="sans-serif" font-size="14" lengthAdjust="spacing" textLength="81" x="244" y="79.5332">Facility Clerk</text><ellipse cx="287.5" cy="13.5" fill="#E2E2F0" rx="8" ry="8" style="stroke:#181818;stroke-width:0.5;"/><path d="M287.5,21.5 L287.5,48.5 M274.5,29.5 L300.5,29.5 M287.5,48.5 L274.5,63.5 M287.5,48.5 L300.5,63.5 " fill="none" style="stroke:#181818;stroke-width:0.5;"/><text fill="#000000" font-family="sans-serif" font-size="14" lengthAdjust="spacing" textLength="81" x="244" y="1713.3691">Facility Clerk</text><ellipse cx="287.5" cy="1724.9453" fill="#E2E2F0" rx="8" ry="8" style="stroke:#181818;stroke-width:0.5;"/><path d="M287.5,1732.9453 L287.5,1759.9453 M274.5,1740.9453 L300.5,1740.9453 M287.5,1759.9453 L274.5,1774.9453 M287.5,1759.9453 L300.5,1774.9453 " fill="none" style="stroke:#181818;stroke-width:0.5;"/><text fill="#000000" font-family="sans-serif" font-size="14" lengthAdjust="spacing" textLength="81" x="517" y="79.5332">Technologist</text><ellipse cx="560.5" cy="13.5" fill="#E2E2F0" rx="8" ry="8" style="stroke:#181818;stroke-width:0.5;"/><path d="M560.5,21.5 L560.5,48.5 M547.5,29.5 L573.5,29.5 M560.5,48.5 L547.5,63.5 M560.5,48.5 L573.5,63.5 " fill="none" style="stroke:#181818;stroke-width:0.5;"/><text fill="#000000" font-family="sans-serif" font-size="14" lengthAdjust="spacing" textLength="81" x="517" y="1713.3691">Technologist</text><ellipse cx="560.5" cy="1724.9453" fill="#E2E2F0" rx="8" ry="8" style="stroke:#181818;stroke-width:0.5;"/><path d="M560.5,1732.9453 L560.5,1759.9453 M547.5,1740.9453 L573.5,1740.9453 M560.5,1759.9453 L547.5,1774.9453 M560.5,1759.9453 L573.5,1774.9453 " fill="none" style="stroke:#181818;stroke-width:0.5;"/><text fill="#000000" font-family="sans-serif" font-size="14" lengthAdjust="spacing" textLength="70" x="734.5" y="79.5332">Radiologist</text><ellipse cx="772.5" cy="13.5" fill="#E2E2F0" rx="8" ry="8" style="stroke:#181818;stroke-width:0.5;"/><path d="M772.5,21.5 L772.5,48.5 M759.5,29.5 L785.5,29.5 M772.5,48.5 L759.5,63.5 M772.5,48.5 L785.5,63.5 " fill="none" style="stroke:#181818;stroke-width:0.5;"/><text fill="#000000" font-family="sans-serif" font-size="14" lengthAdjust="spacing" textLength="70" x="734.5" y="1713.3691">Radiologist</text><ellipse cx="772.5" cy="1724.9453" fill="#E2E2F0" rx="8" ry="8" style="stroke:#181818;stroke-width:0.5;"/><path d="M772.5,1732.9453 L772.5,1759.9453 M759.5,1740.9453 L785.5,1740.9453 M772.5,1759.9453 L759.5,1774.9453 M772.5,1759.9453 L785.5,1774.9453 " fill="none" style="stroke:#181818;stroke-width:0.5;"/><rect fill="#E2E2F0" height="31.6094" rx="2.5" ry="2.5" style="stroke:#181818;stroke-width:0.5;" width="120" x="820.5" y="50"/><text fill="#000000" font-family="sans-serif" font-size="14" lengthAdjust="spacing" textLength="106" x="827.5" y="71.5332">PET/CT Modality</text><rect fill="#E2E2F0" height="31.6094" rx="2.5" ry="2.5" style="stroke:#181818;stroke-width:0.5;" width="120" x="820.5" y="1698.8359"/><text fill="#000000" font-family="sans-serif" font-size="14" lengthAdjust="spacing" textLength="106" x="827.5" y="1720.3691">PET/CT Modality</text><rect fill="#E2E2F0" height="31.6094" rx="2.5" ry="2.5" style="stroke:#181818;stroke-width:0.5;" width="42" x="971.5" y="50"/><text fill="#000000" font-family="sans-serif" font-size="14" lengthAdjust="spacing" textLength="28" x="978.5" y="71.5332">EHR</text><rect fill="#E2E2F0" height="31.6094" rx="2.5" ry="2.5" style="stroke:#181818;stroke-width:0.5;" width="42" x="971.5" y="1698.8359"/><text fill="#000000" font-family="sans-serif" font-size="14" lengthAdjust="spacing" textLength="28" x="978.5" y="1720.3691">EHR</text><rect fill="#E2E2F0" height="49.2188" rx="2.5" ry="2.5" style="stroke:#181818;stroke-width:0.5;" width="199" x="1061" y="32.3906"/><text fill="#000000" font-family="sans-serif" font-size="14" lengthAdjust="spacing" textLength="149" x="1084" y="53.9238">Image Manager/Archive</text><text fill="#000000" font-family="sans-serif" font-size="14" lengthAdjust="spacing" textLength="181" x="1072" y="71.5332">DSS/Order Filler (RIS/PACS)</text><rect fill="#E2E2F0" height="49.2188" rx="2.5" ry="2.5" style="stroke:#181818;stroke-width:0.5;" width="199" x="1061" y="1698.8359"/><text fill="#000000" font-family="sans-serif" font-size="14" lengthAdjust="spacing" textLength="149" x="1084" y="1720.3691">Image Manager/Archive</text><text fill="#000000" font-family="sans-serif" font-size="14" lengthAdjust="spacing" textLength="181" x="1072" y="1737.9785">DSS/Order Filler (RIS/PACS)</text><rect fill="#E2E2F0" height="31.6094" rx="2.5" ry="2.5" style="stroke:#181818;stroke-width:0.5;" width="134" x="1326.5" y="50"/><text fill="#000000" font-family="sans-serif" font-size="14" lengthAdjust="spacing" textLength="120" x="1333.5" y="71.5332">Dose Info Reporter</text><rect fill="#E2E2F0" height="31.6094" rx="2.5" ry="2.5" style="stroke:#181818;stroke-width:0.5;" width="134" x="1326.5" y="1698.8359"/><text fill="#000000" font-family="sans-serif" font-size="14" lengthAdjust="spacing" textLength="120" x="1333.5" y="1720.3691">Dose Info Reporter</text><rect fill="#E2E2F0" height="31.6094" rx="2.5" ry="2.5" style="stroke:#181818;stroke-width:0.5;" width="168" x="1470.5" y="50"/><text fill="#000000" font-family="sans-serif" font-size="14" lengthAdjust="spacing" textLength="154" x="1477.5" y="71.5332">Analysis Task Performer</text><rect fill="#E2E2F0" height="31.6094" rx="2.5" ry="2.5" style="stroke:#181818;stroke-width:0.5;" width="168" x="1470.5" y="1698.8359"/><text fill="#000000" font-family="sans-serif" font-size="14" lengthAdjust="spacing" textLength="154" x="1477.5" y="1720.3691">Analysis Task Performer</text><rect fill="#F5F5F5" height="979.5469" style="stroke:#181818;stroke-width:1.0;" width="10" x="52.5" y="341.4219"/><rect fill="#F5F5F5" height="325.8672" style="stroke:#181818;stroke-width:1.0;" width="10" x="282.5" y="341.4219"/><rect fill="#F5F5F5" height="683.6797" style="stroke:#181818;stroke-width:1.0;" width="10" x="555.5" y="637.2891"/><rect fill="#F5F5F5" height="30" style="stroke:#181818;stroke-width:1.0;" width="10" x="767.5" y="929.1016"/><rect fill="#F5F5F5" height="268.8125" style="stroke:#181818;stroke-width:1.0;" width="10" x="875.5" y="1021.8047"/><rect fill="#F5F5F5" height="329.8672" style="stroke:#181818;stroke-width:1.0;" width="10" x="987.5" y="523.5313"/><rect fill="#F5F5F5" height="198.7578" style="stroke:#181818;stroke-width:1.0;" width="10" x="1155.5" y="853.3984"/><rect fill="#F5F5F5" height="60.7031" style="stroke:#181818;stroke-width:1.0;" width="10" x="1155.5" y="1156.2109"/><rect fill="#F5F5F5" height="213.4609" style="stroke:#181818;stroke-width:1.0;" width="10" x="1155.5" y="1427.0234"/><rect fill="#F5F5F5" height="73.7031" style="stroke:#181818;stroke-width:1.0;" width="10" x="1388.5" y="1216.9141"/><rect fill="#F5F5F5" height="240.4609" style="stroke:#181818;stroke-width:1.0;" width="10" x="1549.5" y="1186.5625"/><path d="M10,99.6094 L150,99.6094 L150,107.9609 L140,117.9609 L10,117.9609 L10,99.6094 " fill="#EEEEEE" style="stroke:#000000;stroke-width:1.5;"/><rect fill="none" height="187.1094" style="stroke:#000000;stroke-width:1.5;" width="1294.5" x="10" y="99.6094"/><text fill="#000000" font-family="sans-serif" font-size="13" font-weight="bold" lengthAdjust="spacing" textLength="95" x="25" y="114.1045">Precondition(s)</text><polygon fill="#181818" points="980.5,138.3125,990.5,142.3125,980.5,146.3125,984.5,142.3125" style="stroke:#181818;stroke-width:1.0;"/><line style="stroke:#181818;stroke-width:1.0;" x1="169.5" x2="986.5" y1="142.3125" y2="142.3125"/><text fill="#000000" font-family="sans-serif" font-size="13" lengthAdjust="spacing" textLength="64" x="176.5" y="137.4561">place order</text><rect fill="#EFEFFF" height="24" style="stroke:#181818;stroke-width:0.5;" width="77" x="997" y="122.9609"/><text fill="#000000" font-family="sans-serif" font-size="13" lengthAdjust="spacing" textLength="69" x="1001" y="140.4561">Example 01</text><polygon fill="#181818" points="68.5,170.6641,58.5,174.6641,68.5,178.6641,64.5,174.6641" style="stroke:#181818;stroke-width:1.0;"/><polygon fill="#181818" points="275.5,170.6641,285.5,174.6641,275.5,178.6641,279.5,174.6641" style="stroke:#181818;stroke-width:1.0;"/><line style="stroke:#181818;stroke-width:1.0;" x1="62.5" x2="281.5" y1="174.6641" y2="174.6641"/><text fill="#000000" font-family="sans-serif" font-size="13" lengthAdjust="spacing" textLength="65" x="74.5" y="169.8076">pre-register</text><polygon fill="#181818" points="980.5,201.0156,990.5,205.0156,980.5,209.0156,984.5,205.0156" style="stroke:#181818;stroke-width:1.0;"/><line style="stroke:#181818;stroke-width:1.0;" x1="287.5" x2="986.5" y1="205.0156" y2="205.0156"/><text fill="#000000" font-family="sans-serif" font-size="13" lengthAdjust="spacing" textLength="173" x="294.5" y="200.1592">obtain insurance authorization</text><line style="stroke:#181818;stroke-width:1.0;" x1="1160.5" x2="1202.5" y1="235.3672" y2="235.3672"/><line style="stroke:#181818;stroke-width:1.0;" x1="1202.5" x2="1202.5" y1="235.3672" y2="248.3672"/><line style="stroke:#181818;stroke-width:1.0;" x1="1161.5" x2="1202.5" y1="248.3672" y2="248.3672"/><polygon fill="#181818" points="1171.5,244.3672,1161.5,248.3672,1171.5,252.3672,1167.5,248.3672" style="stroke:#181818;stroke-width:1.0;"/><text fill="#000000" font-family="sans-serif" font-size="13" lengthAdjust="spacing" textLength="125" x="1167.5" y="230.5107">retrieve relevant priors</text><polygon fill="#181818" points="980.5,274.7188,990.5,278.7188,980.5,282.7188,984.5,278.7188" style="stroke:#181818;stroke-width:1.0;"/><line style="stroke:#181818;stroke-width:1.0;" x1="772.5" x2="986.5" y1="278.7188" y2="278.7188"/><text fill="#000000" font-family="sans-serif" font-size="13" lengthAdjust="spacing" textLength="178" x="779.5" y="273.8623">assign protocol based on order</text><path d="M10,300.7188 L182,300.7188 L182,309.0703 L172,319.0703 L10,319.0703 L10,300.7188 " fill="#EEEEEE" style="stroke:#000000;stroke-width:1.5;"/><rect fill="none" height="374.5703" style="stroke:#000000;stroke-width:1.5;" width="1655.5" x="10" y="300.7188"/><text fill="#000000" font-family="sans-serif" font-size="13" font-weight="bold" lengthAdjust="spacing" textLength="127" x="25" y="315.2139">Arrival and check-in</text><polygon fill="#181818" points="270.5,337.4219,280.5,341.4219,270.5,345.4219,274.5,341.4219" style="stroke:#181818;stroke-width:1.0;"/><line style="stroke:#181818;stroke-width:1.0;" x1="62.5" x2="276.5" y1="341.4219" y2="341.4219"/><text fill="#000000" font-family="sans-serif" font-size="13" lengthAdjust="spacing" textLength="92" x="69.5" y="336.5654">announce name</text><polygon fill="#181818" points="303.5,367.7734,293.5,371.7734,303.5,375.7734,299.5,371.7734" style="stroke:#181818;stroke-width:1.0;"/><polygon fill="#181818" points="980.5,367.7734,990.5,371.7734,980.5,375.7734,984.5,371.7734" style="stroke:#181818;stroke-width:1.0;"/><line style="stroke:#181818;stroke-width:1.0;" x1="297.5" x2="986.5" y1="371.7734" y2="371.7734"/><text fill="#000000" font-family="sans-serif" font-size="13" lengthAdjust="spacing" textLength="110" x="309.5" y="366.917">find appointment(s)</text><polygon fill="#181818" points="73.5,398.125,63.5,402.125,73.5,406.125,69.5,402.125" style="stroke:#181818;stroke-width:1.0;"/><line style="stroke:#181818;stroke-width:1.0;" x1="67.5" x2="281.5" y1="402.125" y2="402.125"/><text fill="#000000" font-family="sans-serif" font-size="13" lengthAdjust="spacing" textLength="155" x="79.5" y="397.2686">confirm identity information</text><polygon fill="#181818" points="270.5,428.4766,280.5,432.4766,270.5,436.4766,274.5,432.4766" style="stroke:#181818;stroke-width:1.0;"/><line style="stroke:#181818;stroke-width:1.0;" x1="62.5" x2="276.5" y1="432.4766" y2="432.4766"/><text fill="#000000" font-family="sans-serif" font-size="13" lengthAdjust="spacing" textLength="128" x="69.5" y="427.6201">provide identity details</text><polygon fill="#181818" points="303.5,458.8281,293.5,462.8281,303.5,466.8281,299.5,462.8281" style="stroke:#181818;stroke-width:1.0;"/><polygon fill="#181818" points="980.5,458.8281,990.5,462.8281,980.5,466.8281,984.5,462.8281" style="stroke:#181818;stroke-width:1.0;"/><line style="stroke:#181818;stroke-width:1.0;" x1="297.5" x2="986.5" y1="462.8281" y2="462.8281"/><text fill="#000000" font-family="sans-serif" font-size="13" lengthAdjust="spacing" textLength="138" x="309.5" y="457.9717">find patient appointment</text><polygon fill="#181818" points="73.5,489.1797,63.5,493.1797,73.5,497.1797,69.5,493.1797" style="stroke:#181818;stroke-width:1.0;"/><polygon fill="#181818" points="270.5,489.1797,280.5,493.1797,270.5,497.1797,274.5,493.1797" style="stroke:#181818;stroke-width:1.0;"/><line style="stroke:#181818;stroke-width:1.0;" x1="67.5" x2="276.5" y1="493.1797" y2="493.1797"/><text fill="#000000" font-family="sans-serif" font-size="13" lengthAdjust="spacing" textLength="174" x="79.5" y="488.3232">choose name change process</text><polygon fill="#181818" points="975.5,519.5313,985.5,523.5313,975.5,527.5313,979.5,523.5313" style="stroke:#181818;stroke-width:1.0;"/><line style="stroke:#181818;stroke-width:1.0;" x1="292.5" x2="981.5" y1="523.5313" y2="523.5313"/><text fill="#000000" font-family="sans-serif" font-size="13" lengthAdjust="spacing" textLength="118" x="299.5" y="518.6748">update patient name</text><line style="stroke:#181818;stroke-width:1.0;" x1="997.5" x2="1039.5" y1="573.9102" y2="573.9102"/><line style="stroke:#181818;stroke-width:1.0;" x1="1039.5" x2="1039.5" y1="573.9102" y2="586.9102"/><line style="stroke:#181818;stroke-width:1.0;" x1="998.5" x2="1039.5" y1="586.9102" y2="586.9102"/><polygon fill="#181818" points="1008.5,582.9102,998.5,586.9102,1008.5,590.9102,1004.5,586.9102" style="stroke:#181818;stroke-width:1.0;"/><text fill="#000000" font-family="sans-serif" font-size="13" lengthAdjust="spacing" textLength="82" x="1004.5" y="569.0537">patient update</text><rect fill="#EFEFFF" height="73" style="stroke:#181818;stroke-width:0.5;" width="547" x="1098" y="536.5313"/><ellipse cx="1107.5" cy="549.3828" fill="#000000" rx="2.5" ry="2.5" style="stroke:#000000;stroke-width:0.0;"/><text fill="#000000" font-family="sans-serif" font-size="13" lengthAdjust="spacing" textLength="317" x="1114" y="554.0264">Local procedure deferrs updates for in-process studies.</text><ellipse cx="1107.5" cy="565.7344" fill="#000000" rx="2.5" ry="2.5" style="stroke:#000000;stroke-width:0.0;"/><text fill="#000000" font-family="sans-serif" font-size="13" lengthAdjust="spacing" textLength="465" x="1114" y="570.3779">Study proceeds using personal communication with staff about pending updates.</text><ellipse cx="1107.5" cy="582.0859" fill="#000000" rx="2.5" ry="2.5" style="stroke:#000000;stroke-width:0.0;"/><text fill="#000000" font-family="sans-serif" font-size="13" lengthAdjust="spacing" textLength="278" x="1114" y="586.7295">Updates will be applied when study is complete.</text><ellipse cx="1107.5" cy="598.4375" fill="#000000" rx="2.5" ry="2.5" style="stroke:#000000;stroke-width:0.0;"/><text fill="#000000" font-family="sans-serif" font-size="13" lengthAdjust="spacing" textLength="527" x="1114" y="603.0811">See IHE Radiology Technical Framework, Volume 1, 34.4.2.2 Use Case #2: Patient Update</text><polygon fill="#181818" points="543.5,633.2891,553.5,637.2891,543.5,641.2891,547.5,637.2891" style="stroke:#181818;stroke-width:1.0;"/><line style="stroke:#181818;stroke-width:1.0;" x1="292.5" x2="549.5" y1="637.2891" y2="637.2891"/><text fill="#000000" font-family="sans-serif" font-size="13" lengthAdjust="spacing" textLength="244" x="299.5" y="632.4326">notify of patient arrival and new information</text><path d="M10,689.2891 L179,689.2891 L179,697.6406 L169,707.6406 L10,707.6406 L10,689.2891 " fill="#EEEEEE" style="stroke:#000000;stroke-width:1.5;"/><rect fill="none" height="277.8125" style="stroke:#000000;stroke-width:1.5;" width="1260" x="10" y="689.2891"/><text fill="#000000" font-family="sans-serif" font-size="13" font-weight="bold" lengthAdjust="spacing" textLength="124" x="25" y="703.7842">Patient Preparation</text><polygon fill="#181818" points="975.5,725.9922,985.5,729.9922,975.5,733.9922,979.5,729.9922" style="stroke:#181818;stroke-width:1.0;"/><line style="stroke:#181818;stroke-width:1.0;" x1="565.5" x2="981.5" y1="729.9922" y2="729.9922"/><text fill="#000000" font-family="sans-serif" font-size="13" lengthAdjust="spacing" textLength="68" x="572.5" y="725.1357">review order</text><polygon fill="#181818" points="975.5,756.3438,985.5,760.3438,975.5,764.3438,979.5,760.3438" style="stroke:#181818;stroke-width:1.0;"/><line style="stroke:#181818;stroke-width:1.0;" x1="565.5" x2="981.5" y1="760.3438" y2="760.3438"/><text fill="#000000" font-family="sans-serif" font-size="13" lengthAdjust="spacing" textLength="128" x="572.5" y="755.4873">check creatine results</text><polygon fill="#181818" points="73.5,786.6953,63.5,790.6953,73.5,794.6953,69.5,790.6953" style="stroke:#181818;stroke-width:1.0;"/><line style="stroke:#181818;stroke-width:1.0;" x1="67.5" x2="554.5" y1="790.6953" y2="790.6953"/><text fill="#000000" font-family="sans-serif" font-size="13" lengthAdjust="spacing" textLength="72" x="79.5" y="785.8389">greet patient</text><polygon fill="#181818" points="73.5,817.0469,63.5,821.0469,73.5,825.0469,69.5,821.0469" style="stroke:#181818;stroke-width:1.0;"/><polygon fill="#181818" points="543.5,817.0469,553.5,821.0469,543.5,825.0469,547.5,821.0469" style="stroke:#181818;stroke-width:1.0;"/><line style="stroke:#181818;stroke-width:1.0;" x1="67.5" x2="549.5" y1="821.0469" y2="821.0469"/><text fill="#000000" font-family="sans-serif" font-size="13" lengthAdjust="spacing" textLength="92" x="79.5" y="816.1904">patient interview</text><polygon fill="#181818" points="1143.5,849.3984,1153.5,853.3984,1143.5,857.3984,1147.5,853.3984" style="stroke:#181818;stroke-width:1.0;"/><line style="stroke:#181818;stroke-width:1.0;" x1="992.5" x2="1149.5" y1="853.3984" y2="853.3984"/><text fill="#000000" font-family="sans-serif" font-size="13" lengthAdjust="spacing" textLength="139" x="999.5" y="848.542">patient update [RAD-12]</text><rect fill="#EFEFFF" height="24" style="stroke:#181818;stroke-width:0.5;" width="77" x="1170" y="834.0469"/><text fill="#000000" font-family="sans-serif" font-size="13" lengthAdjust="spacing" textLength="69" x="1174" y="851.542">Example 02</text><line style="stroke:#181818;stroke-width:1.0;" x1="565.5" x2="607.5" y1="885.75" y2="885.75"/><line style="stroke:#181818;stroke-width:1.0;" x1="607.5" x2="607.5" y1="885.75" y2="898.75"/><line style="stroke:#181818;stroke-width:1.0;" x1="566.5" x2="607.5" y1="898.75" y2="898.75"/><polygon fill="#181818" points="576.5,894.75,566.5,898.75,576.5,902.75,572.5,898.75" style="stroke:#181818;stroke-width:1.0;"/><text fill="#000000" font-family="sans-serif" font-size="13" lengthAdjust="spacing" textLength="68" x="572.5" y="880.8936">prep patient</text><polygon fill="#181818" points="576.5,925.1016,566.5,929.1016,576.5,933.1016,572.5,929.1016" style="stroke:#181818;stroke-width:1.0;"/><polygon fill="#181818" points="755.5,925.1016,765.5,929.1016,755.5,933.1016,759.5,929.1016" style="stroke:#181818;stroke-width:1.0;"/><line style="stroke:#181818;stroke-width:1.0;" x1="570.5" x2="761.5" y1="929.1016" y2="929.1016"/><text fill="#000000" font-family="sans-serif" font-size="13" lengthAdjust="spacing" textLength="183" x="582.5" y="924.2451">confer on protocol modifications</text><path d="M10,981.1016 L135,981.1016 L135,989.4531 L125,999.4531 L10,999.4531 L10,981.1016 " fill="#EEEEEE" style="stroke:#000000;stroke-width:1.5;"/><rect fill="none" height="347.8672" style="stroke:#000000;stroke-width:1.5;" width="1638.5" x="10" y="981.1016"/><text fill="#000000" font-family="sans-serif" font-size="13" font-weight="bold" lengthAdjust="spacing" textLength="80" x="25" y="995.5967">Examination</text><polygon fill="#181818" points="1143.5,1017.8047,1153.5,1021.8047,1143.5,1025.8047,1147.5,1021.8047" style="stroke:#181818;stroke-width:1.0;"/><line style="stroke:#181818;stroke-width:1.0;" x1="885.5" x2="1149.5" y1="1021.8047" y2="1021.8047"/><text fill="#000000" font-family="sans-serif" font-size="13" lengthAdjust="spacing" textLength="183" x="892.5" y="1016.9482">query modality worklist [RAD-5]</text><polygon fill="#181818" points="896.5,1048.1563,886.5,1052.1563,896.5,1056.1563,892.5,1052.1563" style="stroke:#181818;stroke-width:1.0;"/><line style="stroke:#181818;stroke-width:1.0;stroke-dasharray:2.0,2.0;" x1="890.5" x2="1159.5" y1="1052.1563" y2="1052.1563"/><text fill="#000000" font-family="sans-serif" font-size="13" lengthAdjust="spacing" textLength="154" x="902.5" y="1047.2998">modality worklist response</text><polygon fill="#181818" points="863.5,1078.5078,873.5,1082.5078,863.5,1086.5078,867.5,1082.5078" style="stroke:#181818;stroke-width:1.0;"/><line style="stroke:#181818;stroke-width:1.0;" x1="565.5" x2="869.5" y1="1082.5078" y2="1082.5078"/><text fill="#000000" font-family="sans-serif" font-size="13" lengthAdjust="spacing" textLength="85" x="572.5" y="1077.6514">adjust protocol</text><line style="stroke:#181818;stroke-width:1.0;" x1="885.5" x2="927.5" y1="1112.8594" y2="1112.8594"/><line style="stroke:#181818;stroke-width:1.0;" x1="927.5" x2="927.5" y1="1112.8594" y2="1125.8594"/><line style="stroke:#181818;stroke-width:1.0;" x1="886.5" x2="927.5" y1="1125.8594" y2="1125.8594"/><polygon fill="#181818" points="896.5,1121.8594,886.5,1125.8594,896.5,1129.8594,892.5,1125.8594" style="stroke:#181818;stroke-width:1.0;"/><text fill="#000000" font-family="sans-serif" font-size="13" lengthAdjust="spacing" textLength="88" x="892.5" y="1108.0029">acquire images</text><polygon fill="#181818" points="1143.5,1152.2109,1153.5,1156.2109,1143.5,1160.2109,1147.5,1156.2109" style="stroke:#181818;stroke-width:1.0;"/><line style="stroke:#181818;stroke-width:1.0;" x1="885.5" x2="1149.5" y1="1156.2109" y2="1156.2109"/><text fill="#000000" font-family="sans-serif" font-size="13" lengthAdjust="spacing" textLength="178" x="892.5" y="1151.3545">modality image stored [RAD-8]</text><polygon fill="#181818" points="1537.5,1182.5625,1547.5,1186.5625,1537.5,1190.5625,1541.5,1186.5625" style="stroke:#181818;stroke-width:1.0;"/><line style="stroke:#181818;stroke-width:1.0;" x1="885.5" x2="1543.5" y1="1186.5625" y2="1186.5625"/><text fill="#000000" font-family="sans-serif" font-size="13" lengthAdjust="spacing" textLength="178" x="892.5" y="1181.7061">modality image stored [RAD-8]</text><polygon fill="#181818" points="1376.5,1212.9141,1386.5,1216.9141,1376.5,1220.9141,1380.5,1216.9141" style="stroke:#181818;stroke-width:1.0;"/><line style="stroke:#181818;stroke-width:1.0;" x1="885.5" x2="1382.5" y1="1216.9141" y2="1216.9141"/><text fill="#000000" font-family="sans-serif" font-size="13" lengthAdjust="spacing" textLength="185" x="892.5" y="1212.0576">store dose information [RAD-62]</text><line style="stroke:#181818;stroke-width:1.0;" x1="1398.5" x2="1440.5" y1="1247.2656" y2="1247.2656"/><line style="stroke:#181818;stroke-width:1.0;" x1="1440.5" x2="1440.5" y1="1247.2656" y2="1260.2656"/><line style="stroke:#181818;stroke-width:1.0;" x1="1399.5" x2="1440.5" y1="1260.2656" y2="1260.2656"/><polygon fill="#181818" points="1409.5,1256.2656,1399.5,1260.2656,1409.5,1264.2656,1405.5,1260.2656" style="stroke:#181818;stroke-width:1.0;"/><text fill="#000000" font-family="sans-serif" font-size="13" lengthAdjust="spacing" textLength="86" x="1405.5" y="1242.4092">dose summary</text><polygon fill="#181818" points="868.5,1286.6172,878.5,1290.6172,868.5,1294.6172,872.5,1290.6172" style="stroke:#181818;stroke-width:1.0;"/><line style="stroke:#181818;stroke-width:1.0;" x1="565.5" x2="874.5" y1="1290.6172" y2="1290.6172"/><text fill="#000000" font-family="sans-serif" font-size="13" lengthAdjust="spacing" textLength="57" x="572.5" y="1285.7607">end exam</text><polygon fill="#181818" points="68.5,1316.9688,58.5,1320.9688,68.5,1324.9688,64.5,1320.9688" style="stroke:#181818;stroke-width:1.0;"/><line style="stroke:#181818;stroke-width:1.0;" x1="62.5" x2="559.5" y1="1320.9688" y2="1320.9688"/><text fill="#000000" font-family="sans-serif" font-size="13" lengthAdjust="spacing" textLength="85" x="74.5" y="1316.1123">release patient</text><path d="M724.5,1342.9688 L821.5,1342.9688 L821.5,1351.3203 L811.5,1361.3203 L724.5,1361.3203 L724.5,1342.9688 " fill="#EEEEEE" style="stroke:#000000;stroke-width:1.5;"/><rect fill="none" height="122.4063" style="stroke:#000000;stroke-width:1.5;" width="946" x="724.5" y="1342.9688"/><text fill="#000000" font-family="sans-serif" font-size="13" font-weight="bold" lengthAdjust="spacing" textLength="52" x="739.5" y="1357.4639">Analysis</text><line style="stroke:#181818;stroke-width:1.0;" x1="1559.5" x2="1601.5" y1="1383.6719" y2="1383.6719"/><line style="stroke:#181818;stroke-width:1.0;" x1="1601.5" x2="1601.5" y1="1383.6719" y2="1396.6719"/><line style="stroke:#181818;stroke-width:1.0;" x1="1560.5" x2="1601.5" y1="1396.6719" y2="1396.6719"/><polygon fill="#181818" points="1570.5,1392.6719,1560.5,1396.6719,1570.5,1400.6719,1566.5,1396.6719" style="stroke:#181818;stroke-width:1.0;"/><text fill="#000000" font-family="sans-serif" font-size="13" lengthAdjust="spacing" textLength="92" x="1566.5" y="1378.8154">process images</text><polygon fill="#181818" points="1176.5,1423.0234,1166.5,1427.0234,1176.5,1431.0234,1172.5,1427.0234" style="stroke:#181818;stroke-width:1.0;"/><line style="stroke:#181818;stroke-width:1.0;" x1="1170.5" x2="1553.5" y1="1427.0234" y2="1427.0234"/><text fill="#000000" font-family="sans-serif" font-size="13" lengthAdjust="spacing" textLength="215" x="1182.5" y="1422.167">evidence documents stored [RAD-43]</text><polygon fill="#181818" points="1143.5,1453.375,1153.5,1457.375,1143.5,1461.375,1147.5,1457.375" style="stroke:#181818;stroke-width:1.0;"/><line style="stroke:#181818;stroke-width:1.0;" x1="772.5" x2="1149.5" y1="1457.375" y2="1457.375"/><text fill="#000000" font-family="sans-serif" font-size="13" lengthAdjust="spacing" textLength="62" x="779.5" y="1452.5186">create ROI</text><path d="M95,1479.375 L182,1479.375 L182,1487.7266 L172,1497.7266 L95,1497.7266 L95,1479.375 " fill="#EEEEEE" style="stroke:#000000;stroke-width:1.5;"/><rect fill="none" height="203.4609" style="stroke:#000000;stroke-width:1.5;" width="1298.5" x="95" y="1479.375"/><text fill="#000000" font-family="sans-serif" font-size="13" font-weight="bold" lengthAdjust="spacing" textLength="42" x="110" y="1493.8701">Report</text><polygon fill="#181818" points="1143.5,1516.0781,1153.5,1520.0781,1143.5,1524.0781,1147.5,1520.0781" style="stroke:#181818;stroke-width:1.0;"/><line style="stroke:#181818;stroke-width:1.0;" x1="772.5" x2="1149.5" y1="1520.0781" y2="1520.0781"/><text fill="#000000" font-family="sans-serif" font-size="13" lengthAdjust="spacing" textLength="128" x="779.5" y="1515.2217">dictate report narrative</text><polygon fill="#181818" points="1143.5,1546.4297,1153.5,1550.4297,1143.5,1554.4297,1147.5,1550.4297" style="stroke:#181818;stroke-width:1.0;"/><line style="stroke:#181818;stroke-width:1.0;" x1="772.5" x2="1149.5" y1="1550.4297" y2="1550.4297"/><text fill="#000000" font-family="sans-serif" font-size="13" lengthAdjust="spacing" textLength="61" x="779.5" y="1545.5732">sign report</text><line style="stroke:#181818;stroke-width:1.0;" x1="1165.5" x2="1207.5" y1="1597.1328" y2="1597.1328"/><line style="stroke:#181818;stroke-width:1.0;" x1="1207.5" x2="1207.5" y1="1597.1328" y2="1610.1328"/><line style="stroke:#181818;stroke-width:1.0;" x1="1166.5" x2="1207.5" y1="1610.1328" y2="1610.1328"/><polygon fill="#181818" points="1176.5,1606.1328,1166.5,1610.1328,1176.5,1614.1328,1172.5,1610.1328" style="stroke:#181818;stroke-width:1.0;"/><text fill="#000000" font-family="sans-serif" font-size="13" lengthAdjust="spacing" textLength="209" x="1172.5" y="1575.9248">apply deferred demographics update</text><text fill="#000000" font-family="sans-serif" font-size="13" lengthAdjust="spacing" textLength="119" x="1172.5" y="1592.2764">to images and report</text><polygon fill="#181818" points="1003.5,1636.4844,993.5,1640.4844,1003.5,1644.4844,999.5,1640.4844" style="stroke:#181818;stroke-width:1.0;"/><line style="stroke:#181818;stroke-width:1.0;" x1="997.5" x2="1159.5" y1="1640.4844" y2="1640.4844"/><text fill="#000000" font-family="sans-serif" font-size="13" lengthAdjust="spacing" textLength="33" x="1009.5" y="1635.6279">report</text><polygon fill="#181818" points="980.5,1668.8359,990.5,1672.8359,980.5,1676.8359,984.5,1672.8359" style="stroke:#181818;stroke-width:1.0;"/><line style="stroke:#181818;stroke-width:1.0;" x1="169.5" x2="986.5" y1="1672.8359" y2="1672.8359"/><text fill="#000000" font-family="sans-serif" font-size="13" lengthAdjust="spacing" textLength="61" x="176.5" y="1667.9795">view report</text><rect fill="#EFEFFF" height="24" style="stroke:#181818;stroke-width:0.5;" width="257" x="997" y="1653.4844"/><text fill="#000000" font-family="sans-serif" font-size="13" lengthAdjust="spacing" textLength="249" x="1001" y="1670.9795">Examples 03 (FHIR), 04 (v2), and 05 (CDA)</text><!--SRC=[ZLPBR-Cs4BxhLmoIIxB8qyaMHL0KCF90KdInXftjfPi38uqiDXAf9IbxtL_V6OgIACVUxKaFpdmpyysB8dNQmC4Vkb2mgAGh3a1Og8MJg5mYsjCvvcYCL4kO5HihKocK5pFT_qxmGQIob6u3joMQDo-Jybjt_enfeNIfbz8wV-heHpYSYqo68uyzV2QrC8wira8vE9ZTFv_VFiCddGasrVgBMqBtZtD_GC_nmLCbbWYVXAA7EP-Qj90hXAyAxXQByyycGmCFiYIVuMZ-j3YVJMyNnnw9tyPGTzeYFAbSmnnhRHmQBvZHxx7WL8cIQBFmBEmRpD3asbH1MiWaMHhTr30pc6gLIIUrEhB7IKykdFxESS0DrAL84JHxcHYb7OAHoyB1OQMTN0dMl87xxwAgIuIBoyHp3x-HVaWeOnWyDSYq4aWhqEFhLoUa0gbiOuGYKw9nXJRoNm-TC0Kix9ytb7rd919x1ajSSQIraThO94hTW2sibKj58jhfL9VmAYnce5K81rNM4J6bg5UY1A4oI0jCtqwbIhe02AzrcX2LqWrxgKI5N4HC0VQX7guBwT1M-YqwR7NZeu6ZrizSabbHrregLn4EfwAdQQ2HKfLBKu7Cw9ihNYhEQalK3cSfxXN93l8P4jUbtMs_0uZys9dCjD1SX4m0lGj5fKs6KhHsExLDdSNaZ2bZaPWJ_XwABgYq2FlgBldmfqufQTvyrXYa0Bb-RT2pGFGGIQV1Fx2koIJQi-J3WjushI9c96-vvciqLbFV4D5LrIYPUYkmfWb5gYBFGRpgXagE2eVbWnM2-nBihQcDuHMPmr9IgQqBLDugvSeoB3M9GxQFrCQFz_q0se0VKvB3UJ14r5gRjnFuIvSDqNnv0bVNPzTdaxC9V27kRwcEuN1o0xF0KskV2ngOgY4HFEk8J_efymteVCXoLF0ArwDIwdFajUCaPJYkwhY5Ebzefj0aQf4yG9zLWoj9fjhc6n_vdeFK8EafxcxRbCxsGaFrBGsYwtU5Fz-QDU6DIXWDs-igAqoGSMd1t_FftUdbv2KEZGTu_-7LOWv-FWGdlT-1Vff_zNkVuv7LDZTj01sDgqfdCWzLQ0UFOhqzoOaNMPGYzb2gC2_GHQnyQz1isA3VRy3LLpA-f-VZIpJfS6oqdS-S0UGetYDGAcjoV-IUtsjzRhsYoFvfhEjZxzmBX-ctHb9xIrwaTilrtgG_fMxJXZhFE_xhom_o6524_FyO9Bi3WPSlONYbzYDgfXRabt61-VZxBwyoIYJ_683zmpPL9SncYpLkUAIank3-BX1zyptbVH_n_kGfqbLbfE3lHp5048dNPRXT9CH8ns4tP4EIsfEG8-Gzn6ipqsd3cyMEEBw-6j53zvCVjDzuqGS3Vd8Wp3y_nMwsTwGzAfbCdUyLBqJRoV3GMkspu6yIhUo-Jjkwg_0Is8ILH95cMEcb4NKXqsv1VLLE1xxy80xm7KutDRr_x-fdnrtDZzS0yhCnPU7Y2euU7f_cnoTmSGr7gmczi1SN7-7ezcvwx9dy3m00]--></g></svg>