<?xml version="1.0" encoding="UTF-8" standalone="no"?><svg xmlns="http://www.w3.org/2000/svg" xmlns:xlink="http://www.w3.org/1999/xlink" contentStyleType="text/css" height="281px" preserveAspectRatio="none" style="width:880px;height:281px;background:#FFFFFF;" version="1.1" viewBox="0 0 880 281" width="880px" zoomAndPan="magnify"><defs/><g><line style="stroke:#181818;stroke-width:0.5;stroke-dasharray:5.0,5.0;" x1="38" x2="38" y1="36.2969" y2="246.2266"/><line style="stroke:#181818;stroke-width:0.5;stroke-dasharray:5.0,5.0;" x1="438.5" x2="438.5" y1="36.2969" y2="246.2266"/><line style="stroke:#181818;stroke-width:0.5;stroke-dasharray:5.0,5.0;" x1="797" x2="797" y1="36.2969" y2="246.2266"/><rect fill="#E2E2F0" height="30.2969" rx="2.5" ry="2.5" style="stroke:#181818;stroke-width:0.5;" width="67" x="5" y="5"/><text fill="#000000" font-family="sans-serif" font-size="14" lengthAdjust="spacing" textLength="53" x="12" y="24.9951">Patient</text><rect fill="#E2E2F0" height="30.2969" rx="2.5" ry="2.5" style="stroke:#181818;stroke-width:0.5;" width="67" x="5" y="245.2266"/><text fill="#000000" font-family="sans-serif" font-size="14" lengthAdjust="spacing" textLength="53" x="12" y="265.2217">Patient</text><rect fill="#E2E2F0" height="30.2969" rx="2.5" ry="2.5" style="stroke:#181818;stroke-width:0.5;" width="52" x="412.5" y="5"/><text fill="#000000" font-family="sans-serif" font-size="14" lengthAdjust="spacing" textLength="38" x="419.5" y="24.9951">Clerk</text><rect fill="#E2E2F0" height="30.2969" rx="2.5" ry="2.5" style="stroke:#181818;stroke-width:0.5;" width="52" x="412.5" y="245.2266"/><text fill="#000000" font-family="sans-serif" font-size="14" lengthAdjust="spacing" textLength="38" x="419.5" y="265.2217">Clerk</text><rect fill="#E2E2F0" height="30.2969" rx="2.5" ry="2.5" style="stroke:#181818;stroke-width:0.5;" width="153" x="721" y="5"/><text fill="#000000" font-family="sans-serif" font-size="14" lengthAdjust="spacing" textLength="139" x="728" y="24.9951">Scheduling_System</text><rect fill="#E2E2F0" height="30.2969" rx="2.5" ry="2.5" style="stroke:#181818;stroke-width:0.5;" width="153" x="721" y="245.2266"/><text fill="#000000" font-family="sans-serif" font-size="14" lengthAdjust="spacing" textLength="139" x="728" y="265.2217">Scheduling_System</text><polygon fill="#181818" points="426.5,63.4297,436.5,67.4297,426.5,71.4297,430.5,67.4297" style="stroke:#181818;stroke-width:1.0;"/><line style="stroke:#181818;stroke-width:1.0;" x1="38.5" x2="432.5" y1="67.4297" y2="67.4297"/><text fill="#000000" font-family="sans-serif" font-size="13" lengthAdjust="spacing" textLength="221" x="45.5" y="62.3638">Julie Smith, female patient, arrives</text><polygon fill="#181818" points="49.5,92.5625,39.5,96.5625,49.5,100.5625,45.5,96.5625" style="stroke:#181818;stroke-width:1.0;"/><line style="stroke:#181818;stroke-width:1.0;" x1="43.5" x2="437.5" y1="96.5625" y2="96.5625"/><text fill="#000000" font-family="sans-serif" font-size="13" lengthAdjust="spacing" textLength="376" x="55.5" y="91.4966">Greets patient and asks for patient name and date of birth</text><polygon fill="#181818" points="426.5,121.6953,436.5,125.6953,426.5,129.6953,430.5,125.6953" style="stroke:#181818;stroke-width:1.0;"/><line style="stroke:#181818;stroke-width:1.0;" x1="38.5" x2="432.5" y1="125.6953" y2="125.6953"/><text fill="#000000" font-family="sans-serif" font-size="13" lengthAdjust="spacing" textLength="233" x="45.5" y="120.6294">Provides name (Julie Smith) and age</text><polygon fill="#181818" points="785.5,150.8281,795.5,154.8281,785.5,158.8281,789.5,154.8281" style="stroke:#181818;stroke-width:1.0;"/><line style="stroke:#181818;stroke-width:1.0;" x1="438.5" x2="791.5" y1="154.8281" y2="154.8281"/><text fill="#000000" font-family="sans-serif" font-size="13" lengthAdjust="spacing" textLength="254" x="445.5" y="149.7622">Performs name lookup for appointment</text><polygon fill="#181818" points="449.5,195.0938,439.5,199.0938,449.5,203.0938,445.5,199.0938" style="stroke:#181818;stroke-width:1.0;"/><line style="stroke:#181818;stroke-width:1.0;" x1="443.5" x2="796.5" y1="199.0938" y2="199.0938"/><text fill="#000000" font-family="sans-serif" font-size="13" lengthAdjust="spacing" textLength="335" x="455.5" y="178.895">Returns confirmation of appointment for Julie Smith,</text><text fill="#000000" font-family="sans-serif" font-size="13" lengthAdjust="spacing" textLength="325" x="455.5" y="194.0278">male, health screening appointment with Dr. Jones</text><polygon fill="#181818" points="785.5,224.2266,795.5,228.2266,785.5,232.2266,789.5,228.2266" style="stroke:#181818;stroke-width:1.0;"/><line style="stroke:#181818;stroke-width:1.0;" x1="438.5" x2="791.5" y1="228.2266" y2="228.2266"/><text fill="#000000" font-family="sans-serif" font-size="13" lengthAdjust="spacing" textLength="240" x="445.5" y="223.1606">Checks Julie Smith in for appointment</text><!--MD5=[b23aca75d81a3212a0ca96aed1d7c427]
@startuml
Patient -> Clerk : Julie Smith, female patient, arrives
Clerk -> Patient : Greets patient and asks for patient name and date of birth
Patient -> Clerk : Provides name (Julie Smith) and age
Clerk -> Scheduling_System : Performs name lookup for appointment
Scheduling_System -> Clerk : Returns confirmation of appointment for Julie Smith,\nmale, health screening appointment with Dr. Jones
Clerk -> Scheduling_System : Checks Julie Smith in for appointment
@enduml

PlantUML version 1.2022.7beta2(Unknown compile time)
(GPL source distribution)
Java Runtime: Java(TM) SE Runtime Environment
JVM: Java HotSpot(TM) 64-Bit Server VM
Default Encoding: UTF-8
Language: en
Country: US
--></g></svg>