<?xml version="1.0" encoding="UTF-8" standalone="no"?><svg xmlns="http://www.w3.org/2000/svg" xmlns:xlink="http://www.w3.org/1999/xlink" contentStyleType="text/css" height="559px" preserveAspectRatio="none" style="width:1228px;height:559px;background:#FFFFFF;" version="1.1" viewBox="0 0 1228 559" width="1228px" zoomAndPan="magnify"><defs/><g><line style="stroke:#181818;stroke-width:0.5;stroke-dasharray:5.0,5.0;" x1="45" x2="45" y1="36.2969" y2="524.6875"/><line style="stroke:#181818;stroke-width:0.5;stroke-dasharray:5.0,5.0;" x1="518.5" x2="518.5" y1="36.2969" y2="524.6875"/><line style="stroke:#181818;stroke-width:0.5;stroke-dasharray:5.0,5.0;" x1="583.5" x2="583.5" y1="36.2969" y2="524.6875"/><line style="stroke:#181818;stroke-width:0.5;stroke-dasharray:5.0,5.0;" x1="1037.5" x2="1037.5" y1="36.2969" y2="524.6875"/><line style="stroke:#181818;stroke-width:0.5;stroke-dasharray:5.0,5.0;" x1="1160.5" x2="1160.5" y1="36.2969" y2="524.6875"/><rect fill="#E2E2F0" height="30.2969" rx="2.5" ry="2.5" style="stroke:#181818;stroke-width:0.5;" width="80" x="5" y="5"/><text fill="#000000" font-family="sans-serif" font-size="14" lengthAdjust="spacing" textLength="66" x="12" y="24.9951">Physician</text><rect fill="#E2E2F0" height="30.2969" rx="2.5" ry="2.5" style="stroke:#181818;stroke-width:0.5;" width="80" x="5" y="523.6875"/><text fill="#000000" font-family="sans-serif" font-size="14" lengthAdjust="spacing" textLength="66" x="12" y="543.6826">Physician</text><rect fill="#E2E2F0" height="30.2969" rx="2.5" ry="2.5" style="stroke:#181818;stroke-width:0.5;" width="67" x="485.5" y="5"/><text fill="#000000" font-family="sans-serif" font-size="14" lengthAdjust="spacing" textLength="53" x="492.5" y="24.9951">Patient</text><rect fill="#E2E2F0" height="30.2969" rx="2.5" ry="2.5" style="stroke:#181818;stroke-width:0.5;" width="67" x="485.5" y="523.6875"/><text fill="#000000" font-family="sans-serif" font-size="14" lengthAdjust="spacing" textLength="53" x="492.5" y="543.6826">Patient</text><rect fill="#E2E2F0" height="30.2969" rx="2.5" ry="2.5" style="stroke:#181818;stroke-width:0.5;" width="43" x="562.5" y="5"/><text fill="#000000" font-family="sans-serif" font-size="14" lengthAdjust="spacing" textLength="29" x="569.5" y="24.9951">EHR</text><rect fill="#E2E2F0" height="30.2969" rx="2.5" ry="2.5" style="stroke:#181818;stroke-width:0.5;" width="43" x="562.5" y="523.6875"/><text fill="#000000" font-family="sans-serif" font-size="14" lengthAdjust="spacing" textLength="29" x="569.5" y="543.6826">EHR</text><rect fill="#E2E2F0" height="30.2969" rx="2.5" ry="2.5" style="stroke:#181818;stroke-width:0.5;" width="101" x="987.5" y="5"/><text fill="#000000" font-family="sans-serif" font-size="14" lengthAdjust="spacing" textLength="87" x="994.5" y="24.9951">Lab_System</text><rect fill="#E2E2F0" height="30.2969" rx="2.5" ry="2.5" style="stroke:#181818;stroke-width:0.5;" width="101" x="987.5" y="523.6875"/><text fill="#000000" font-family="sans-serif" font-size="14" lengthAdjust="spacing" textLength="87" x="994.5" y="543.6826">Lab_System</text><rect fill="#E2E2F0" height="30.2969" rx="2.5" ry="2.5" style="stroke:#181818;stroke-width:0.5;" width="124" x="1098.5" y="5"/><text fill="#000000" font-family="sans-serif" font-size="14" lengthAdjust="spacing" textLength="110" x="1105.5" y="24.9951">Lab_Technician</text><rect fill="#E2E2F0" height="30.2969" rx="2.5" ry="2.5" style="stroke:#181818;stroke-width:0.5;" width="124" x="1098.5" y="523.6875"/><text fill="#000000" font-family="sans-serif" font-size="14" lengthAdjust="spacing" textLength="110" x="1105.5" y="543.6826">Lab_Technician</text><polygon fill="#181818" points="507,63.4297,517,67.4297,507,71.4297,511,67.4297" style="stroke:#181818;stroke-width:1.0;"/><line style="stroke:#181818;stroke-width:1.0;" x1="45" x2="513" y1="67.4297" y2="67.4297"/><text fill="#000000" font-family="sans-serif" font-size="13" lengthAdjust="spacing" textLength="397" x="52" y="62.3638">Reviews anatomic inventory and notes patient has a prostate</text><polygon fill="#181818" points="56,122.8281,46,126.8281,56,130.8281,52,126.8281" style="stroke:#181818;stroke-width:1.0;"/><line style="stroke:#181818;stroke-width:1.0;" x1="50" x2="583" y1="126.8281" y2="126.8281"/><text fill="#000000" font-family="sans-serif" font-size="13" lengthAdjust="spacing" textLength="458" x="62" y="91.4966">Julie’s age is over 50, has an anatomic inventory with prostate present,</text><text fill="#000000" font-family="sans-serif" font-size="13" lengthAdjust="spacing" textLength="469" x="62" y="106.6294">and no prostate exam or PSA value in the past 10 years. Alerts physician</text><text fill="#000000" font-family="sans-serif" font-size="13" lengthAdjust="spacing" textLength="459" x="62" y="121.7622">that a prostate exam and/or a PSA should be considered for the patient</text><polygon fill="#181818" points="507,151.9609,517,155.9609,507,159.9609,511,155.9609" style="stroke:#181818;stroke-width:1.0;"/><line style="stroke:#181818;stroke-width:1.0;" x1="45" x2="513" y1="155.9609" y2="155.9609"/><text fill="#000000" font-family="sans-serif" font-size="13" lengthAdjust="spacing" textLength="248" x="52" y="150.895">Reviews recommendation with patient</text><polygon fill="#181818" points="56,181.0938,46,185.0938,56,189.0938,52,185.0938" style="stroke:#181818;stroke-width:1.0;"/><line style="stroke:#181818;stroke-width:1.0;" x1="50" x2="518" y1="185.0938" y2="185.0938"/><text fill="#000000" font-family="sans-serif" font-size="13" lengthAdjust="spacing" textLength="93" x="62" y="180.0278">Patient agrees</text><polygon fill="#181818" points="507,210.2266,517,214.2266,507,218.2266,511,214.2266" style="stroke:#181818;stroke-width:1.0;"/><line style="stroke:#181818;stroke-width:1.0;" x1="45" x2="513" y1="214.2266" y2="214.2266"/><text fill="#000000" font-family="sans-serif" font-size="13" lengthAdjust="spacing" textLength="281" x="52" y="209.1606">Collects current medication list from patient</text><polygon fill="#181818" points="56,239.3594,46,243.3594,56,247.3594,52,243.3594" style="stroke:#181818;stroke-width:1.0;"/><line style="stroke:#181818;stroke-width:1.0;" x1="50" x2="518" y1="243.3594" y2="243.3594"/><text fill="#000000" font-family="sans-serif" font-size="13" lengthAdjust="spacing" textLength="450" x="62" y="238.2935">Informs Dr. Jones that she is receiving an estrogenic therapy regimen.</text><polygon fill="#181818" points="572,268.4922,582,272.4922,572,276.4922,576,272.4922" style="stroke:#181818;stroke-width:1.0;"/><line style="stroke:#181818;stroke-width:1.0;" x1="45" x2="578" y1="272.4922" y2="272.4922"/><text fill="#000000" font-family="sans-serif" font-size="13" lengthAdjust="spacing" textLength="430" x="52" y="267.4263">Creates entry that patient is taking an estrogenic therapy regimen.</text><polygon fill="#181818" points="507,297.625,517,301.625,507,305.625,511,301.625" style="stroke:#181818;stroke-width:1.0;"/><line style="stroke:#181818;stroke-width:1.0;" x1="45" x2="513" y1="301.625" y2="301.625"/><text fill="#000000" font-family="sans-serif" font-size="13" lengthAdjust="spacing" textLength="400" x="52" y="296.5591">Examines patient prostate and notes a nodule on the prostate</text><polygon fill="#181818" points="507,326.7578,517,330.7578,507,334.7578,511,330.7578" style="stroke:#181818;stroke-width:1.0;"/><line style="stroke:#181818;stroke-width:1.0;" x1="45" x2="513" y1="330.7578" y2="330.7578"/><text fill="#000000" font-family="sans-serif" font-size="13" lengthAdjust="spacing" textLength="390" x="52" y="325.6919">Discusses finding with patient. Recommends ordering a PSA.</text><polygon fill="#181818" points="56,355.8906,46,359.8906,56,363.8906,52,359.8906" style="stroke:#181818;stroke-width:1.0;"/><line style="stroke:#181818;stroke-width:1.0;" x1="50" x2="518" y1="359.8906" y2="359.8906"/><text fill="#000000" font-family="sans-serif" font-size="13" lengthAdjust="spacing" textLength="97" x="62" y="354.8247">Patient agrees.</text><polygon fill="#181818" points="572,400.1563,582,404.1563,572,408.1563,576,404.1563" style="stroke:#181818;stroke-width:1.0;"/><line style="stroke:#181818;stroke-width:1.0;" x1="45" x2="578" y1="404.1563" y2="404.1563"/><text fill="#000000" font-family="sans-serif" font-size="13" lengthAdjust="spacing" textLength="267" x="52" y="383.9575">Places lab order for PSA quantitative test.</text><text fill="#000000" font-family="sans-serif" font-size="13" lengthAdjust="spacing" textLength="491" x="52" y="399.0903">Enters SFCU value as ‘Male’ with a comment that the patient has a prostate.</text><polygon fill="#181818" points="1026,444.4219,1036,448.4219,1026,452.4219,1030,448.4219" style="stroke:#181818;stroke-width:1.0;"/><line style="stroke:#181818;stroke-width:1.0;" x1="584" x2="1032" y1="448.4219" y2="448.4219"/><text fill="#000000" font-family="sans-serif" font-size="13" lengthAdjust="spacing" textLength="430" x="591" y="428.2231">Transmits lab order for PSA quantitative test, SFCU value as ‘Male,’</text><text fill="#000000" font-family="sans-serif" font-size="13" lengthAdjust="spacing" textLength="295" x="595" y="443.356">and comment that the patient has a prostate.</text><polygon fill="#181818" points="1148.5,473.5547,1158.5,477.5547,1148.5,481.5547,1152.5,477.5547" style="stroke:#181818;stroke-width:1.0;"/><line style="stroke:#181818;stroke-width:1.0;" x1="519" x2="1154.5" y1="477.5547" y2="477.5547"/><text fill="#000000" font-family="sans-serif" font-size="13" lengthAdjust="spacing" textLength="297" x="526" y="472.4888">Checks in with Lab department as ‘Julie Smith’</text><polygon fill="#181818" points="530,502.6875,520,506.6875,530,510.6875,526,506.6875" style="stroke:#181818;stroke-width:1.0;"/><line style="stroke:#181818;stroke-width:1.0;" x1="524" x2="1159.5" y1="506.6875" y2="506.6875"/><text fill="#000000" font-family="sans-serif" font-size="13" lengthAdjust="spacing" textLength="243" x="536" y="501.6216">Collects blood specimen from patient.</text><!--MD5=[df9ae99fec698e2f83250dd8d16d585c]
@startuml
Physician -> Patient : Reviews anatomic inventory and notes patient has a prostate
EHR -> Physician : Julie’s age is over 50, has an anatomic inventory with prostate present,\nand no prostate exam or PSA value in the past 10 years. Alerts physician\nthat a prostate exam and/or a PSA should be considered for the patient
Physician -> Patient : Reviews recommendation with patient
Patient -> Physician: Patient agrees
Physician -> Patient : Collects current medication list from patient
Patient -> Physician: Informs Dr. Jones that she is receiving an estrogenic therapy regimen.
Physician -> EHR: Creates entry that patient is taking an estrogenic therapy regimen.
Physician -> Patient : Examines patient prostate and notes a nodule on the prostate
Physician -> Patient : Discusses finding with patient. Recommends ordering a PSA.
Patient -> Physician : Patient agrees.
Physician -> EHR : Places lab order for PSA quantitative test. \nEnters SFCU value as ‘Male’ with a comment that the patient has a prostate.
EHR -> Lab_System: Transmits lab order for PSA quantitative test, SFCU value as ‘Male,’\n and comment that the patient has a prostate.
Patient -> Lab_Technician : Checks in with Lab department as ‘Julie Smith’
Lab_Technician -> Patient : Collects blood specimen from patient.
@enduml

PlantUML version 1.2022.7beta2(Unknown compile time)
(GPL source distribution)
Java Runtime: Java(TM) SE Runtime Environment
JVM: Java HotSpot(TM) 64-Bit Server VM
Default Encoding: UTF-8
Language: en
Country: US
--></g></svg>